<svg width="22" height="20" viewBox="0 0 22 20" fill="none" xmlns="http://www.w3.org/2000/svg">
<path d="M15.7976 12.0475H15.0628C14.9555 12.0475 14.8674 12.0819 14.7989 12.151C14.7298 12.2197 14.6954 12.3077 14.6954 12.4149V16.0887C14.6954 16.5939 14.5157 17.0263 14.156 17.386C13.7963 17.7457 13.3637 17.9255 12.8586 17.9255H3.3064C2.80126 17.9255 2.36878 17.7457 2.009 17.386C1.6493 17.0263 1.46947 16.594 1.46947 16.0887V6.53671C1.46947 6.03157 1.64926 5.59925 2.009 5.23951C2.36878 4.87973 2.80126 4.69994 3.3064 4.69994L9.00094 4.69994C9.10827 4.69994 9.19633 4.6654 9.26514 4.59659C9.33394 4.52771 9.36832 4.43977 9.36832 4.33252V3.59765C9.36832 3.4906 9.33394 3.4025 9.26514 3.33373C9.19633 3.26485 9.10827 3.23047 9.00094 3.23047L3.3064 3.23047C2.39568 3.23047 1.61685 3.55386 0.969997 4.20059C0.323386 4.84728 0 5.62611 0 6.53683V16.0889C0 16.9996 0.323386 17.7785 0.970038 18.425C1.61689 19.0718 2.39572 19.3953 3.30644 19.3953H12.8586C13.7692 19.3953 14.5482 19.0718 15.1949 18.425C15.8417 17.7785 16.1651 16.9996 16.1651 16.0889V12.4152C16.1651 12.3079 16.1307 12.2198 16.0616 12.151C15.9927 12.0819 15.9047 12.0475 15.7976 12.0475Z" fill="#ED1B6C"/>
<path d="M7.25827 13.7993C7.0072 14.0504 7.0072 14.4574 7.25827 14.7085C7.50935 14.9596 7.91643 14.9596 8.16751 14.7085L7.25827 13.7993ZM18.6426 3.96712C18.6426 3.61204 18.3548 3.32419 17.9997 3.32419L12.2134 3.32419C11.8583 3.32419 11.5704 3.61204 11.5704 3.96712C11.5704 4.32219 11.8583 4.61004 12.2134 4.61004L17.3568 4.61004L17.3568 9.75344C17.3568 10.1085 17.6446 10.3964 17.9997 10.3964C18.3548 10.3964 18.6426 10.1085 18.6426 9.75344L18.6426 3.96712ZM8.16751 14.7085L18.4543 4.42173L17.5451 3.5125L7.25827 13.7993L8.16751 14.7085Z" fill="#ED1B6C"/>
</svg>
