<svg width="405" height="405" viewBox="0 0 405 405" fill="none" xmlns="http://www.w3.org/2000/svg">
<g filter="url(#filter0_i)">
<circle cx="202.5" cy="202.5" r="202.5" fill="white"/>
</g>
<circle cx="202.5" cy="202.5" r="199.16" stroke="#EB1A6B" stroke-width="6.68041"/>
<path d="M252.319 239.813C257.633 243.609 260.29 245.886 263.327 247.784C281.548 259.932 301.287 261.07 314.193 248.923C327.859 235.637 328.998 218.935 322.544 201.853C315.712 182.494 299.768 170.726 280.409 173.763C271.678 175.281 261.429 181.734 256.494 188.947C244.347 206.408 240.172 228.805 220.053 240.572C217.396 242.091 218.155 250.821 218.155 256.136C218.535 294.095 190.824 323.324 150.966 327.12C119.459 330.157 72.3893 304.724 72.7689 269.422C89.4712 277.014 105.414 287.642 123.255 291.438C138.06 294.855 155.901 293.336 170.705 288.401C190.065 281.948 199.175 263.348 196.897 246.646C194.62 232.221 188.926 228.425 159.697 223.49C157.799 215.139 155.901 206.029 154.003 195.78C157.04 195.4 159.317 194.641 161.595 194.641C174.881 193.502 189.305 193.122 190.444 174.522C191.583 159.718 177.538 142.256 161.215 143.775C145.272 145.293 130.468 153.644 112.247 160.097C108.831 154.783 103.137 146.052 97.8224 137.322C120.978 109.99 158.938 104.676 186.648 124.795C212.081 143.015 214.359 172.245 191.963 206.408C198.416 212.482 204.869 218.555 213.979 227.286C217.016 218.176 218.534 211.723 220.812 205.649C223.849 196.918 226.126 187.428 231.061 179.457C243.208 158.579 259.911 144.154 286.103 147.191C311.536 150.228 324.475 165.323 334.227 188.889C344.792 216.52 340.483 237.312 334.227 253.089C327.971 268.865 304.703 284.985 288.001 282.328C265.984 278.912 253.458 264.866 252.319 239.813Z" fill="black"/>
<path d="M179.057 94.4263C213.98 118.721 244.727 115.304 275.854 94.0466C281.548 103.157 286.483 110.749 291.418 118.341C254.597 147.19 194.62 132.386 179.057 94.4263Z" fill="black"/>
<path d="M206.769 80.3829C213.601 72.0317 218.916 65.9582 225.369 58.3662C232.961 66.3378 237.896 71.6521 243.969 78.4849C238.275 84.9381 232.961 90.632 226.128 97.8444C219.675 92.1504 213.981 86.8361 206.769 80.3829Z" fill="#F01871"/>
<defs>
<filter id="filter0_i" x="0" y="0" width="405" height="408.34" filterUnits="userSpaceOnUse" color-interpolation-filters="sRGB">
<feFlood flood-opacity="0" result="BackgroundImageFix"/>
<feBlend mode="normal" in="SourceGraphic" in2="BackgroundImageFix" result="shape"/>
<feColorMatrix in="SourceAlpha" type="matrix" values="0 0 0 0 0 0 0 0 0 0 0 0 0 0 0 0 0 0 127 0" result="hardAlpha"/>
<feOffset dy="3.34021"/>
<feGaussianBlur stdDeviation="2.08763"/>
<feComposite in2="hardAlpha" operator="arithmetic" k2="-1" k3="1"/>
<feColorMatrix type="matrix" values="0 0 0 0 0 0 0 0 0 0 0 0 0 0 0 0 0 0 0.24 0"/>
<feBlend mode="normal" in2="shape" result="effect1_innerShadow"/>
</filter>
</defs>
</svg>
