<svg width="130" height="173" viewBox="0 0 130 173" fill="none" xmlns="http://www.w3.org/2000/svg">
<path d="M89.8131 60.1523C90.3888 60.6355 109.529 82.7635 109.529 82.7635L99.1674 91.0253L86.0234 74.5017L89.8131 60.1523Z" fill="#FFBE9D"/>
<path d="M32.775 67.5918C32.2473 68.1716 16.8008 88.8501 16.8008 88.8501L26.4908 99.431L38.3876 81.3614L32.775 67.5918Z" fill="#FFBE9D"/>
<path opacity="0.2" d="M101.038 66.5771C100.99 65.3693 100.318 64.2097 99.2629 63.7266C98.3514 63.2918 97.2001 63.4367 96.2887 63.9682C95.3772 64.4996 94.7536 65.321 94.2259 66.2389C92.9307 68.6063 92.7868 71.4086 92.499 74.1142C92.2112 76.8198 91.5876 79.0906 90.1484 81.7479L99.9824 69.9591C100.654 68.9445 101.134 67.7367 101.038 66.5771Z" fill="black"/>
<path d="M101.038 66.5771C100.99 65.3693 100.318 64.2097 99.2629 63.7266C98.3514 63.2918 97.2001 63.4367 96.2887 63.9682C95.3772 64.4996 94.7536 65.321 94.2259 66.2389C92.9307 68.6063 92.7868 71.4086 92.499 74.1142C92.2112 76.8198 91.5876 79.0906 90.1484 81.7479L99.9824 69.9591C100.654 68.9445 101.134 67.7367 101.038 66.5771Z" fill="#E22D73"/>
<path d="M32.9688 81.3135C34.12 81.845 34.7437 83.0528 35.1754 84.2124C35.6071 85.3719 35.8949 86.6281 36.7104 87.5944C37.5259 88.5607 39.013 89.0921 40.0204 88.3674C40.9798 87.691 41.0278 86.1933 40.5961 85.1304C40.0684 83.7776 39.013 82.7146 37.7658 81.9899C36.5665 81.2652 35.1754 80.8304 33.7842 80.4922" fill="#E22D73"/>
<g opacity="0.2">
<g opacity="0.2">
<path opacity="0.2" d="M32.9688 81.3135C34.12 81.845 34.7437 83.0528 35.1754 84.2124C35.6071 85.3719 35.8949 86.6281 36.7104 87.5944C37.5259 88.5607 39.013 89.0921 40.0204 88.3674C40.9798 87.691 41.0278 86.1933 40.5961 85.1304C40.0684 83.7776 39.013 82.7146 37.7658 81.9899C36.5665 81.2652 35.1754 80.8304 33.7842 80.4922" fill="black"/>
</g>
</g>
<path d="M122.912 123.153C122.721 123.105 122.337 123.008 121.857 122.96L83.2887 106.678H44.9122L7.11137 121.704C3.27372 123.008 -2.19493 130.545 0.923163 139.532C1.0191 139.773 1.11505 140.015 1.21099 140.256C3.70546 146.537 10.5653 149.774 17.0413 148.035C22.2701 146.634 29.7535 144.556 37.4768 142.43H38.3402L62.3735 135.57C66.1632 136.633 74.0784 138.807 82.857 141.271C93.5544 144.218 105.547 147.552 112.935 149.533C119.411 151.272 126.318 148.035 128.765 141.754C128.861 141.513 128.957 141.271 129.053 141.029C132.219 131.995 126.75 124.457 122.912 123.153Z" fill="#455A64"/>
<path d="M62.1335 135.667C62.1335 135.667 62.1815 135.667 62.2774 135.618C62.3734 135.57 62.5173 135.57 62.6612 135.473C63.045 135.377 63.5247 135.232 64.1963 135.039C65.5394 134.652 67.5062 134.072 69.9527 133.396L69.8568 133.492C68.8494 129.821 67.5542 124.941 66.0192 119.288L66.1631 119.385C64.8679 119.385 63.5727 119.385 62.2295 119.385C60.8863 119.385 59.4951 119.53 58.056 119.578C55.2258 119.723 52.2516 119.916 49.1815 120.061C38.1962 120.689 28.3142 121.462 21.1187 122.042C17.5688 122.332 14.6426 122.573 12.6279 122.767C11.6205 122.863 10.8529 122.912 10.3253 122.96C10.0854 122.96 9.89353 123.008 9.70165 123.008C9.55774 123.008 9.50977 123.008 9.50977 123.008C9.50977 123.008 9.55774 123.008 9.70165 122.96C9.84556 122.96 10.0374 122.912 10.2773 122.912C10.805 122.863 11.5725 122.767 12.5799 122.67C14.5947 122.477 17.4729 122.187 21.0707 121.849C28.2183 121.221 38.1482 120.448 49.1335 119.771C52.2036 119.626 55.1778 119.433 58.0081 119.288C59.4472 119.24 60.8383 119.143 62.1815 119.095C63.5247 119.095 64.8679 119.095 66.1631 119.095H66.259L66.307 119.191C67.7941 124.844 69.0893 129.724 70.0487 133.396V133.492H69.9527C67.5062 134.169 65.5395 134.7 64.1483 135.039C63.4767 135.232 62.997 135.328 62.6132 135.425C62.4693 135.473 62.3254 135.473 62.2295 135.522C62.1815 135.667 62.1335 135.667 62.1335 135.667Z" fill="#263238"/>
<path d="M49.6136 119.771C49.5656 119.819 48.5103 119.239 47.359 118.273C46.2077 117.307 45.3922 116.34 45.4881 116.292C45.5361 116.244 46.4475 117.065 47.5509 118.031C48.7022 118.949 49.6616 119.674 49.6136 119.771Z" fill="#263238"/>
<path d="M118.354 124.554C118.354 124.554 118.162 124.554 117.827 124.554C117.443 124.554 116.963 124.506 116.292 124.458C114.948 124.361 113.078 124.216 110.727 124.071C106.026 123.733 99.5498 123.298 92.4022 122.815C85.2546 122.38 78.7785 121.994 74.0774 121.704C71.7748 121.559 69.856 121.462 68.5128 121.366C67.8892 121.317 67.3615 121.269 67.0257 121.269C66.6899 121.221 66.498 121.221 66.498 121.221C66.498 121.221 66.6899 121.221 67.0257 121.221C67.4095 121.221 67.8892 121.269 68.5608 121.269C69.904 121.317 71.7748 121.414 74.1254 121.511C78.8265 121.752 85.3025 122.09 92.4502 122.525C99.5978 123.008 106.074 123.491 110.775 123.878C113.078 124.071 114.996 124.265 116.34 124.361C116.963 124.409 117.491 124.458 117.827 124.506C118.162 124.506 118.354 124.554 118.354 124.554Z" fill="#263238"/>
<path d="M62.7565 123.83C62.7085 123.782 63.3321 123.202 64.3395 122.912C65.3469 122.67 66.1624 122.864 66.1624 122.912C66.1624 123.009 65.3469 122.96 64.4355 123.202C63.4761 123.443 62.8045 123.878 62.7565 123.83Z" fill="#263238"/>
<path d="M63.8125 126.246C63.8125 126.149 64.4841 126.004 65.3955 125.908C66.259 125.811 66.9786 125.763 66.9786 125.859C66.9786 125.956 66.307 126.101 65.3955 126.198C64.5321 126.342 63.8125 126.342 63.8125 126.246Z" fill="#263238"/>
<path d="M64.2461 129.096C64.2461 129 65.1096 129 66.1169 128.661C67.1243 128.371 67.8439 127.937 67.8918 128.033C67.9398 128.082 67.2682 128.661 66.2129 129C65.1575 129.338 64.2461 129.193 64.2461 129.096Z" fill="#263238"/>
<path d="M65.2031 132.188C65.2031 132.091 66.0186 132.043 66.978 131.656C67.9375 131.318 68.5611 130.835 68.657 130.883C68.705 130.932 68.0814 131.56 67.122 131.946C66.0666 132.333 65.2031 132.284 65.2031 132.188Z" fill="#263238"/>
<path d="M82.761 118.273C82.809 118.321 82.1854 119.094 81.4658 120.061C80.7462 121.027 80.2185 121.897 80.1226 121.848C80.0267 121.8 80.4584 120.882 81.2259 119.867C81.9455 118.901 82.713 118.225 82.761 118.273Z" fill="#263238"/>
<path d="M66.2582 119.239L57.0478 117.838C57.0478 117.838 56.2323 115.664 54.7932 115.567C53.3541 115.471 52.0589 117.017 51.0515 116.92C49.9961 116.823 37.6677 112.668 36.9961 118.273L42.129 120.399" fill="#FFBE9D"/>
<path d="M96.4323 124.313L69.0891 130.207L66.6426 120.738L76.7644 120.255C76.7644 120.255 77.9636 118.274 79.4028 118.419C80.7939 118.564 81.8013 120.351 82.8566 120.448C83.864 120.545 96.7201 118.66 96.4323 124.313Z" fill="#FFBE9D"/>
<path d="M62.0862 52.2279C66.8353 52.5661 70.8169 48.6043 70.529 43.8212C70.4331 41.8403 70.3372 40.2942 70.3372 40.2942C70.3372 40.2942 76.5733 39.3279 76.6693 32.9987C76.7652 26.7178 75.6619 12.2235 75.6619 12.2235C68.4183 9.08307 60.0715 10.146 53.8353 14.9774L52.9238 15.7021L54.8427 44.7874C55.0345 48.7492 58.1526 51.938 62.0862 52.2279Z" fill="#FFBE9D"/>
<path d="M70.3386 40.197C70.3386 40.197 66.405 40.5352 62.1836 37.8779C62.1836 37.8779 64.1024 42.4195 70.3386 41.8397V40.197Z" fill="#EB996E"/>
<path d="M53.6438 22.2242C53.5479 22.1759 49.3265 20.9197 49.4704 25.268C49.6143 29.568 53.8837 28.5534 53.8837 28.4085C53.8837 28.3118 53.6438 22.2242 53.6438 22.2242Z" fill="#FFBE9D"/>
<path d="M52.5412 26.863C52.5412 26.863 52.4453 26.9113 52.3494 26.9596C52.2055 27.0079 52.0136 27.0562 51.7737 27.0079C51.294 26.863 50.9102 26.1383 50.8623 25.3652C50.8623 24.9787 50.9102 24.5922 51.0542 24.3023C51.1981 23.9641 51.3899 23.7709 51.5818 23.7226C51.8217 23.6742 51.9656 23.7709 52.0136 23.9158C52.0615 24.0124 52.0615 24.1091 52.0615 24.1091C52.0615 24.1091 52.1575 24.0124 52.1095 23.8675C52.1095 23.7709 52.0136 23.6742 51.9176 23.6259C51.8217 23.5293 51.6778 23.5293 51.4859 23.5293C51.1501 23.5776 50.8623 23.8675 50.7184 24.2057C50.5745 24.5439 50.4785 24.9787 50.4785 25.4136C50.5265 26.2832 51.0062 27.0562 51.6298 27.2495C51.9176 27.2978 52.1575 27.2012 52.3014 27.1046C52.4933 26.9596 52.5412 26.863 52.5412 26.863Z" fill="#EB996E"/>
<path d="M61.5589 21.5968C61.6548 21.5001 62.3264 21.9833 63.2858 21.9833C64.2452 21.9833 64.9648 21.5001 65.0607 21.5968C65.1087 21.6451 65.0127 21.8383 64.6769 22.0799C64.3891 22.3215 63.8614 22.5147 63.2378 22.5147C62.6622 22.5147 62.1345 22.2732 61.8467 22.0799C61.6068 21.8383 61.5109 21.6451 61.5589 21.5968Z" fill="#263238"/>
<path d="M71.01 21.4034C71.106 21.3068 71.7776 21.7899 72.737 21.7899C73.6964 21.7899 74.4159 21.3068 74.5119 21.4034C74.5598 21.4517 74.4639 21.645 74.1281 21.8865C73.8403 22.1281 73.3126 22.3214 72.689 22.3214C72.1134 22.3214 71.5857 22.0798 71.2979 21.8865C71.058 21.645 70.9621 21.4517 71.01 21.4034Z" fill="#263238"/>
<path d="M68.5134 28.458C68.5134 28.4097 69.0891 28.313 70.0965 28.1681C70.3363 28.1198 70.5762 28.0715 70.6242 27.9265C70.6721 27.7333 70.5762 27.4917 70.4802 27.2018C70.2404 26.622 70.0005 25.994 69.7607 25.3176C68.7533 22.6603 68.0337 20.4378 68.1297 20.3895C68.2256 20.3412 69.1371 22.467 70.1444 25.1726C70.3843 25.849 70.6241 26.4771 70.816 27.0569C70.912 27.3468 71.0559 27.6366 70.9599 28.0232C70.912 28.2164 70.7201 28.3614 70.5762 28.3614C70.4323 28.4097 70.2884 28.4097 70.1444 28.4097C69.0891 28.5063 68.5134 28.5063 68.5134 28.458Z" fill="#263238"/>
<path d="M65.686 29.1338C65.8299 29.1338 65.8299 30.1967 66.7413 30.9214C67.6528 31.6461 68.7561 31.5495 68.7561 31.6945C68.7561 31.7428 68.5162 31.8877 68.0365 31.8877C67.5568 31.8877 66.8852 31.7428 66.3576 31.3079C65.8299 30.8731 65.59 30.245 65.5421 29.8102C65.4941 29.3754 65.59 29.1338 65.686 29.1338Z" fill="#263238"/>
<path d="M65.2531 18.4562C65.1572 18.6978 64.1978 18.6011 63.0944 18.7461C61.9432 18.8427 61.0317 19.1809 60.8878 18.9393C60.8398 18.8427 60.9838 18.6011 61.3675 18.3113C61.7513 18.0697 62.3269 17.8281 62.9985 17.7315C63.6701 17.6349 64.2937 17.7798 64.7255 17.9247C65.0612 18.118 65.3011 18.3596 65.2531 18.4562Z" fill="#263238"/>
<path d="M74.0785 19.3742C73.8866 19.6158 73.263 19.3742 72.4475 19.3742C71.632 19.3259 70.9604 19.5191 70.8165 19.2776C70.7685 19.1809 70.8644 18.9394 71.1523 18.7461C71.4401 18.5528 71.9198 18.3596 72.4954 18.4079C73.0231 18.4079 73.5028 18.6012 73.7906 18.8427C74.0785 19.0843 74.1744 19.2776 74.0785 19.3742Z" fill="#263238"/>
<path d="M78.6835 8.26202C78.7314 7.48899 78.4436 6.61933 77.82 6.1845C77.1964 5.74967 76.189 5.74967 75.7093 6.32944C75.9971 5.26652 75.1337 4.05866 74.0783 4.01035C73.0709 3.96203 72.2074 4.73506 71.2001 4.97664C70.2406 5.26652 69.1853 5.02495 68.2738 4.63844C67.3624 4.25192 66.4989 3.76878 65.5395 3.38226C63.5727 2.65754 61.3661 2.75417 59.4473 3.62383C57.5764 4.49349 56.0413 6.13618 55.2738 8.11708C53.8827 7.68225 52.3476 8.40696 51.4841 9.56651C50.6207 10.7261 50.4288 12.2721 50.5727 13.7215C50.6686 14.6878 50.9565 15.6058 51.2922 16.5721C51.2922 16.6687 51.2922 16.717 51.2922 16.8137C51.3402 20.2923 51.724 24.3507 53.2111 24.3507C55.7535 24.399 55.1779 19.5193 55.1779 19.5193C58.296 18.3114 57.1447 13.5766 57.9122 12.8519C58.6797 12.1272 60.3587 10.4845 66.9307 13.8665C69.4731 15.171 72.879 15.1227 74.7499 14.7362C74.7979 14.7362 74.8458 14.7362 74.8938 14.6878H74.9418H74.9897C75.5654 14.5429 76.141 14.3013 76.6687 13.9631C77.2444 13.5766 77.82 13.0935 78.0599 12.4171C78.2997 11.7407 78.2038 10.9193 77.7241 10.4362C78.2517 9.75977 78.6355 9.03505 78.6835 8.26202Z" fill="#263238"/>
<path d="M72.4478 0C72.4478 0 72.4958 0.0483147 72.5438 0.193258C72.6397 0.289887 72.6877 0.483144 72.7836 0.724717C72.9755 1.20786 73.0714 1.98089 72.9275 2.89887C72.7357 3.81684 72.2559 4.87976 71.2006 5.60447C70.1452 6.32919 68.7061 6.42582 67.3629 6.23256C65.9718 6.0393 64.7246 5.55616 63.5733 5.31459C62.422 5.07302 61.3186 5.0247 60.4552 5.21796C59.5917 5.41122 58.9681 5.84605 58.5843 6.18425C58.2006 6.52245 58.1046 6.76402 58.0566 6.76402C58.0566 6.76402 58.1046 6.71571 58.1526 6.57076C58.2006 6.47413 58.3445 6.28088 58.5363 6.08762C58.8721 5.7011 59.5437 5.26627 60.4072 5.0247C61.3186 4.78313 62.422 4.78313 63.6212 5.0247C64.8205 5.26627 66.0677 5.7011 67.4109 5.89436C68.7541 6.08762 70.0973 5.99099 71.1047 5.31459C72.0641 4.63819 72.5917 3.62358 72.7836 2.80224C72.9755 1.93258 72.8796 1.15955 72.7357 0.676402C72.5917 0.241572 72.3999 0.0483144 72.4478 0Z" fill="#455A64"/>
<path d="M70.8166 1.20801C70.8166 1.20801 71.1524 1.49789 71.2004 2.1743C71.2484 2.5125 71.2004 2.89901 71.0085 3.33384C70.8166 3.72036 70.4808 4.10687 70.0491 4.34845C69.6174 4.59002 69.1377 4.73496 68.7059 4.73496C68.2742 4.73496 67.8904 4.68665 67.5546 4.59002C66.931 4.39676 66.5952 4.15519 66.6432 4.10687C66.6432 4.05856 67.027 4.25182 67.6026 4.39676C68.1783 4.5417 69.0897 4.59002 69.9052 4.10687C70.289 3.8653 70.6248 3.5271 70.8166 3.1889C71.0085 2.8507 71.0565 2.46418 71.0565 2.1743C71.0085 1.54621 70.7687 1.20801 70.8166 1.20801Z" fill="#263238"/>
<path d="M92.7407 104.939C92.7407 104.939 93.1244 107.934 90.1503 109.577L83.2905 106.678L74.8477 107.258L78.1576 98.1748C78.1576 98.1748 87.6078 99.3344 88.951 100.446C90.3422 101.46 92.8366 103.489 92.7407 104.939Z" fill="#E22D73"/>
<g opacity="0.4">
<path opacity="0.4" d="M92.7407 104.939C92.7407 104.939 93.1244 107.934 90.1503 109.577L83.2905 106.678L74.8477 107.258L78.1576 98.1748C78.1576 98.1748 87.6078 99.3344 88.951 100.446C90.3422 101.46 92.8366 103.489 92.7407 104.939Z" fill="black"/>
</g>
<path d="M92.7407 104.939C92.7407 104.939 93.1244 107.934 90.1503 109.577L83.2905 106.678L74.8477 107.258L78.1576 98.1748C78.1576 98.1748 87.6078 99.3344 88.951 100.446C90.3422 101.46 92.8366 103.489 92.7407 104.939Z" fill="#E22D73"/>
<g opacity="0.4">
<path opacity="0.4" d="M92.7407 104.939C92.7407 104.939 93.1244 107.934 90.1503 109.577L83.2905 106.678L74.8477 107.258L78.1576 98.1748C78.1576 98.1748 87.6078 99.3344 88.951 100.446C90.3422 101.46 92.8366 103.489 92.7407 104.939Z" fill="black"/>
</g>
<path d="M99.8397 64.065L99.1681 63.4852L84.681 52.083C80.2197 47.2999 76.9577 45.8504 70.6735 45.1257C69.6662 44.9808 71.2492 45.2223 70.6735 45.1257C65.8765 46.6235 59.4005 46.7684 54.6034 45.2707C52.3488 45.3673 50.5259 46.0437 48.6071 46.4302C42.6107 47.5898 39.4447 51.8414 37.0941 56.0448L25.5332 75.6121L26.0129 76.3852C27.6439 78.8975 30.0424 80.7818 32.8727 81.7964L33.6402 82.1829C36.3266 83.5357 38.7731 85.4683 40.4521 87.9323L45.5369 78.9458L44.0978 93.3435L43.0904 107.451C50.286 109.432 56.2824 110.254 64.0056 110.157C74.0795 110.205 88.1348 97.8368 92.6441 104.987C92.6921 101.315 88.1348 96.2907 86.8396 93.875C82.906 86.3379 83.6256 83.2941 83.3378 77.593L90.1016 81.7481L91.3009 79.3806C92.3083 77.3514 94.2751 72.8582 94.9946 69.3796C95.1386 69.2829 95.9541 62.7605 99.8397 64.065Z" fill="#E22D73"/>
<path d="M68.2733 91.4549C68.7752 91.7752 69.0262 91.9674 69.313 92.1275C71.034 93.1525 72.8984 93.2486 74.1174 92.2236C75.4081 91.1025 75.5156 89.6932 74.9061 88.2518C74.2608 86.6182 72.7549 85.6252 70.9264 85.8814C70.1018 86.0096 69.1338 86.5541 68.6677 87.1627C67.5204 88.6361 67.126 90.526 65.2257 91.5189C64.9748 91.6471 65.0465 92.3838 65.0465 92.8322C65.0823 96.0354 62.465 98.5018 58.7004 98.8221C55.7246 99.0783 51.2788 96.9322 51.3147 93.9533C52.8922 94.5939 54.3981 95.4908 56.0832 95.8111C57.4814 96.0994 59.1665 95.9713 60.5648 95.5549C62.3933 95.0104 63.2538 93.4408 63.0387 92.0314C62.8236 90.8143 62.2858 90.4939 59.5251 90.0775C59.3458 89.3729 59.1665 88.6041 58.9873 87.7393C59.2741 87.7072 59.4892 87.6432 59.7043 87.6432C60.9592 87.5471 62.3216 87.515 62.4292 85.9455C62.5367 84.6963 61.2102 83.2229 59.6685 83.351C58.1626 83.4791 56.7644 84.1838 55.0434 84.7283C54.7207 84.2799 54.1829 83.5432 53.681 82.8064C55.868 80.5002 59.4534 80.0518 62.0707 81.7494C64.4728 83.2869 64.6879 85.7533 62.5726 88.6361C63.1821 89.1486 63.7916 89.6611 64.6521 90.3979C64.9389 89.6291 65.0823 89.0846 65.2975 88.5721C65.5843 87.8354 65.7994 87.0346 66.2655 86.3619C67.4128 84.6002 68.9903 83.383 71.4642 83.6393C73.8664 83.8955 75.0885 85.1692 76.0096 87.1579C77.0074 89.4893 76.6005 91.2439 76.0096 92.5751C75.4187 93.9064 73.221 95.2666 71.6435 95.0424C69.564 94.7541 68.3808 93.5689 68.2733 91.4549Z" fill="#303030"/>
<path d="M61.3535 79.1863C64.652 81.2363 67.5561 80.948 70.4961 79.1543C71.0339 79.923 71.5 80.5637 71.9661 81.2043C68.4883 83.6387 62.8235 82.3895 61.3535 79.1863Z" fill="#303030"/>
<path d="M63.7285 77.5008C64.3207 76.7719 64.7812 76.2418 65.3405 75.5791C65.9985 76.2749 66.4261 76.7388 66.9525 77.3352C66.459 77.8984 65.9985 78.3954 65.4063 79.025C64.847 78.528 64.3536 78.0641 63.7285 77.5008Z" fill="#303030"/>
<path d="M45.634 64.4033C45.634 64.4033 45.682 64.5966 45.682 64.9831C45.682 65.3696 45.7299 65.9011 45.7299 66.5775C45.7299 67.9303 45.7779 69.8145 45.7299 71.8921C45.7299 73.9696 45.682 75.8538 45.682 77.2067C45.682 77.8831 45.634 78.4145 45.634 78.801C45.634 79.1875 45.586 79.3808 45.586 79.3808C45.586 79.3808 45.538 79.1875 45.538 78.801C45.538 78.4145 45.4901 77.8831 45.4901 77.2067C45.4901 75.8538 45.4421 73.9696 45.4901 71.8921C45.4901 69.8145 45.538 67.9303 45.538 66.5775C45.538 65.9011 45.586 65.3696 45.586 64.9831C45.586 64.5966 45.586 64.4033 45.634 64.4033Z" fill="#263238"/>
<path d="M84.2978 87.2074C84.2978 87.2074 84.2498 86.8692 84.2019 86.2895C84.1539 85.6614 84.058 84.7917 83.962 83.7771C83.7701 81.6513 83.5783 78.7524 83.3384 75.5153C83.0986 72.2783 82.9067 69.3794 82.8107 67.2536C82.7628 66.239 82.7148 65.3693 82.6668 64.7412C82.6189 64.1614 82.6189 63.8232 82.6668 63.8232C82.6668 63.8232 82.7148 64.1614 82.7628 64.7412C82.8107 65.3693 82.9067 66.239 83.0026 67.2536C83.1945 69.3794 83.3864 72.2783 83.6262 75.5153C83.8661 78.7524 84.058 81.6513 84.1539 83.7771C84.2019 84.7917 84.2499 85.6614 84.2978 86.2895C84.2978 86.8692 84.2978 87.2074 84.2978 87.2074Z" fill="#263238"/>
<g opacity="0.2">
<g opacity="0.2">
<path opacity="0.2" d="M52.7812 45.7539C55.8514 50.1022 59.8809 53.7741 64.4381 56.4314C66.1171 57.3977 67.94 58.2673 69.8588 58.4123C73.1688 58.7022 76.3348 56.8662 78.9252 54.7404C79.9326 53.919 80.94 52.9528 81.3717 51.6966C81.8035 50.4404 81.4677 48.7977 80.3164 48.2179C79.5009 47.7831 78.4935 47.9281 77.678 48.3146C76.8625 48.7011 76.1429 49.2809 75.4234 49.8123C72.1134 52.1797 67.796 53.0977 63.8145 52.373C59.8329 51.5999 56.1392 49.1842 53.9325 45.7539" fill="black"/>
</g>
</g>
<g opacity="0.2">
<g opacity="0.2">
<path opacity="0.2" d="M57.3864 102.765C64.4381 104.117 72.0174 101.074 76.2868 95.3242C76.9584 94.4062 77.63 93.2467 77.3422 92.1354C77.0544 90.9759 75.7592 90.2029 74.5599 90.2512C73.3606 90.2995 72.2573 90.9276 71.3459 91.7489C69.1392 93.6815 67.892 96.532 65.6853 98.4646C63.7185 100.204 61.0801 101.122 58.4897 100.977C58.106 100.929 57.6742 100.977 57.2905 101.025C56.7628 101.122 56.379 101.605 56.379 101.992C56.3311 102.475 56.7148 102.668 57.3864 102.765Z" fill="black"/>
</g>
</g>
<g opacity="0.2">
<path opacity="0.2" d="M82.8574 68.752L83.4331 77.5452L90.2449 81.7002L91.636 79.0429L82.8574 68.752Z" fill="black"/>
</g>
<path d="M99.9381 64.2101C99.9381 64.2585 99.6503 64.0652 99.1226 64.0652C98.5949 64.0169 97.7794 64.2101 97.0599 64.8382C96.3403 65.418 95.8126 66.4809 95.4768 67.7371C95.141 68.9449 94.8532 70.3461 94.3735 71.7955C93.51 74.6461 92.5027 77.1584 91.6872 78.8977C91.3034 79.7674 90.9196 80.4921 90.6798 80.9752C90.4399 81.4584 90.248 81.7 90.248 81.7C90.248 81.7 90.344 81.4101 90.5838 80.9269C90.8237 80.4438 91.1595 79.7191 91.5433 78.8494C92.3108 77.0618 93.3182 74.5977 94.1816 71.7472C94.6134 70.3461 94.9492 68.9449 95.285 67.7371C95.6207 66.4809 96.1964 65.418 97.0119 64.7899C97.7794 64.1618 98.6429 64.0169 99.1706 64.0652C99.4584 64.0652 99.6503 64.1618 99.7942 64.2101C99.8901 64.1618 99.9381 64.2101 99.9381 64.2101Z" fill="#263238"/>
<path d="M40.5001 87.8843C40.5001 87.8843 40.3083 87.691 40.0204 87.3045C39.6846 86.918 39.2529 86.3382 38.6293 85.7584C38.0057 85.1303 37.1902 84.4539 36.2307 83.8258C35.2234 83.1978 34.0721 82.618 32.8728 81.9899C31.6735 81.3618 30.5222 80.7337 29.5628 80.0573C28.6034 79.3809 27.7879 78.6562 27.1643 78.0281C26.5407 77.3517 26.1569 76.7719 25.9171 76.2888C25.7732 76.0955 25.7252 75.9023 25.6772 75.7573C25.6292 75.6124 25.5813 75.5641 25.6292 75.5641C25.6772 75.5158 26.109 76.5787 27.3082 77.8832C27.9318 78.5113 28.7473 79.1877 29.7067 79.8641C30.6662 80.5405 31.8175 81.1202 33.0167 81.7483C34.216 82.3764 35.3673 82.9562 36.3747 83.5843C37.382 84.2124 38.1975 84.9371 38.8212 85.5652C39.4448 86.1933 39.8765 86.773 40.1643 87.2079C40.3083 87.4011 40.4042 87.5944 40.5001 87.691C40.4522 87.7876 40.5001 87.8843 40.5001 87.8843Z" fill="#263238"/>
<path d="M78.8297 90.7832C78.8297 90.7832 78.8297 90.8798 78.7338 91.0731C78.6858 91.2663 78.5899 91.5079 78.446 91.8461C78.1581 92.5225 77.7264 93.4405 77.0068 94.5517C75.6157 96.7259 73.1692 99.4798 69.6194 101.316C66.1175 103.152 62.4238 103.587 59.8813 103.442C58.5861 103.393 57.5787 103.2 56.8592 103.055C56.5234 103.007 56.2356 102.91 56.0437 102.862C55.8518 102.813 55.7559 102.765 55.7559 102.765C55.7559 102.765 55.8518 102.765 56.0437 102.813C56.2356 102.862 56.5234 102.91 56.8592 102.958C57.5787 103.103 58.5861 103.248 59.8813 103.248C62.4238 103.345 66.0216 102.862 69.5234 101.074C72.9773 99.2865 75.4718 96.5809 76.8629 94.4551C77.5825 93.3922 78.0622 92.4742 78.35 91.7978C78.4939 91.4596 78.5899 91.218 78.6858 91.0248C78.7817 90.8798 78.8297 90.7832 78.8297 90.7832Z" fill="#263238"/>
<g opacity="0.2">
<g opacity="0.2">
<path opacity="0.2" d="M40.9316 86.8696C41.4593 79.864 43.0903 72.9067 45.6328 66.3359V78.8494L40.9316 86.8696Z" fill="black"/>
</g>
</g>
<path d="M52.541 45.4642C54.6517 50.0058 60.2163 52.5665 65.0613 53.5328C69.9543 54.499 75.2311 52.953 78.8769 49.5227C81.947 46.6238 83.7699 42.6137 86.6001 39.4733C91.4931 34.1587 99.4563 31.9845 106.316 34.062L106.7 27.2014C104.349 25.7036 98.353 25.1239 95.6186 25.5587C90.198 26.38 85.161 29.3755 81.8031 33.7238C78.7809 37.6373 77.006 42.662 73.0245 45.5126C70.1462 47.5901 66.5484 47.5901 63.0466 47.0103C59.5447 46.4305 57.1942 43.1935 54.5078 40.8744L52.541 45.4642Z" fill="#263238"/>
<path d="M54.459 40.874C56.2819 43.1931 59.0642 44.7392 61.9424 45.1257C64.8686 45.4639 67.8908 44.5942 70.2413 42.7583C70.8649 42.2751 71.6804 41.6471 72.352 42.0336C72.8797 42.3235 73.0236 43.0482 73.1195 43.6279C73.3114 45.0291 73.4074 46.6234 72.5919 47.783C71.7764 48.8942 70.3373 49.2807 68.9941 49.5223C65.828 50.0538 62.4221 50.0055 59.4959 48.701C56.5697 47.3965 54.7468 44.1111 54.459 40.874Z" fill="#263238"/>
<path d="M74.4156 44.3531C74.4156 44.3531 74.3677 44.4014 74.2717 44.5464C74.1758 44.643 73.9839 44.8363 73.792 45.0295C73.3603 45.416 72.6887 45.9475 71.7293 46.4307C70.8178 46.9138 69.6186 47.3969 68.2274 47.6385C66.8363 47.8801 65.3012 47.8801 63.7182 47.4936C62.1351 47.1071 60.792 46.3823 59.5927 45.6576C59.0171 45.3194 58.4414 44.9812 57.9137 44.5947C57.3861 44.2565 56.9543 43.87 56.5706 43.5318C55.803 42.8554 55.2274 42.179 54.9395 41.6475C54.7956 41.4059 54.6517 41.2127 54.6038 41.0677C54.5558 40.9228 54.5078 40.8262 54.5078 40.8262C54.5078 40.8262 54.6517 41.1161 54.9875 41.5992C55.3233 42.0824 55.899 42.7104 56.6665 43.3868C57.0503 43.725 57.53 44.0632 58.0097 44.4014C58.5373 44.7396 59.113 45.0778 59.6886 45.416C60.8879 46.0924 62.2311 46.8172 63.7661 47.2037C65.3012 47.5902 66.8363 47.5902 68.1794 47.3486C69.5226 47.1554 70.6739 46.6722 71.6333 46.1891C72.5448 45.7059 73.2643 45.2228 73.6961 44.8363C74.1758 44.5464 74.4156 44.3048 74.4156 44.3531Z" fill="#455A64"/>
<path d="M82.6664 44.4016C82.6184 44.4499 81.3712 43.7735 79.8841 42.9522C78.349 42.1308 77.1018 41.4544 77.1498 41.4061C77.1977 41.3578 78.493 41.9376 80.028 42.7589C81.5151 43.532 82.7144 44.305 82.6664 44.4016Z" fill="#455A64"/>
<path d="M86.0248 40.0051C85.9768 40.0534 84.6336 39.377 82.9546 38.459C81.2757 37.541 79.9805 36.7197 79.9805 36.6714C80.0284 36.6231 81.3716 37.2995 83.0506 38.2174C84.7296 39.1354 86.0248 39.9084 86.0248 40.0051Z" fill="#455A64"/>
<path d="M89.2379 36.3814C89.1899 36.4297 88.9021 36.1399 88.4224 35.705C87.8947 35.1736 87.2711 34.5938 86.5995 33.9657C85.9279 33.3376 85.3043 32.7579 84.7287 32.2264C84.249 31.7916 83.9611 31.5017 84.0091 31.4534C84.0091 31.405 84.3449 31.6466 84.8726 32.0814C85.3523 32.5163 86.0718 33.0961 86.7914 33.7725C87.511 34.4489 88.1346 35.1253 88.5663 35.6084C88.9981 36.0432 89.2859 36.3331 89.2379 36.3814Z" fill="#455A64"/>
<path d="M89.7188 27.3457C89.7667 27.3457 90.0066 27.7322 90.3903 28.3603C90.8221 29.085 91.3977 29.9064 91.9734 30.8243C92.549 31.7423 93.1247 32.5637 93.5564 33.2401C93.9882 33.8681 94.228 34.2547 94.18 34.2547C94.1321 34.2547 93.8442 33.9165 93.4125 33.3367C92.9808 32.7569 92.3571 31.8873 91.7335 30.921C91.1099 29.9547 90.5822 29.085 90.1985 28.4086C89.9106 27.7322 89.7188 27.3457 89.7188 27.3457Z" fill="#455A64"/>
<path d="M97.25 25.8965C97.298 25.8965 97.3939 26.283 97.5378 26.9594C97.7297 27.7324 97.9216 28.6021 98.1135 29.5684C98.3533 30.5347 98.5452 31.4043 98.7371 32.1774C98.881 32.8538 98.977 33.2403 98.977 33.2886C98.929 33.2886 98.7851 32.9021 98.5932 32.2257C98.4013 31.5493 98.1135 30.6313 97.8736 29.6167C97.6338 28.6021 97.4419 27.6358 97.3459 26.9594C97.25 26.3313 97.25 25.8965 97.25 25.8965Z" fill="#455A64"/>
<path d="M103.151 25.7998C103.247 25.7998 103.199 27.4425 103.295 29.4234C103.39 31.4043 103.582 33.047 103.486 33.047C103.438 33.047 103.342 32.6605 103.247 31.9841C103.151 31.3077 103.055 30.438 103.007 29.4234C102.959 28.4088 102.959 27.4908 103.007 26.8627C103.055 26.2346 103.151 25.7998 103.151 25.7998Z" fill="#455A64"/>
<path d="M78.3974 49.8605C78.3494 49.9088 77.2461 48.8942 75.9029 47.5897C74.5597 46.2852 73.5044 45.174 73.5524 45.1257C73.6003 45.0774 74.7036 46.092 76.0468 47.3965C77.39 48.7493 78.4454 49.8122 78.3974 49.8605Z" fill="#455A64"/>
<path d="M71.5863 53.3874C71.5384 53.3874 71.0586 52.0346 70.531 50.3436C70.0033 48.6526 69.6675 47.2514 69.7155 47.2031C69.7635 47.2031 70.2432 48.5559 70.7708 50.2469C71.2985 51.9862 71.6823 53.3874 71.5863 53.3874Z" fill="#455A64"/>
<path d="M64.0542 53.2915C64.0062 53.2915 64.1981 51.987 64.5339 50.4409C64.8697 48.8948 65.1575 47.6387 65.2534 47.6387C65.3014 47.6387 65.1095 48.9432 64.7737 50.4892C64.4379 52.0836 64.1501 53.2915 64.0542 53.2915Z" fill="#455A64"/>
<path d="M58.3932 51.1169C58.3452 51.1169 58.681 49.9574 59.3046 48.6046C59.9282 47.2517 60.6478 46.2855 60.6958 46.3338C60.7437 46.3821 60.1681 47.3967 59.5445 48.7012C58.8729 50.0057 58.4412 51.1169 58.3932 51.1169Z" fill="#455A64"/>
<path d="M56.8109 43.822C56.8588 43.8704 56.4271 44.8367 55.7075 45.9962C54.988 47.1557 54.3164 47.9771 54.2684 47.9771C54.2204 47.9288 54.7961 47.0108 55.5157 45.8996C56.1872 44.74 56.7629 43.7737 56.8109 43.822Z" fill="#455A64"/>
<path d="M63.1435 45.2707C63.1915 45.2707 63.1915 45.6572 63.1435 46.1403C63.0956 46.6235 63.0476 47.01 62.9996 47.01C62.9517 47.01 62.8557 46.6235 62.9037 46.1403C62.9517 45.6089 63.0956 45.2224 63.1435 45.2707Z" fill="#455A64"/>
<path d="M67.8443 47.493C67.7964 47.493 67.6045 46.8166 67.5085 45.9469C67.4126 45.0773 67.4605 44.3525 67.5085 44.3525C67.5565 44.3525 67.6524 45.0289 67.7484 45.8986C67.8443 46.8166 67.8923 47.493 67.8443 47.493Z" fill="#455A64"/>
<path d="M71.2031 42.4209C71.251 42.4209 71.347 43.2906 71.5388 44.3535C71.7307 45.4164 71.9226 46.286 71.8267 46.286C71.7787 46.286 71.4429 45.4647 71.299 44.4018C71.1071 43.2906 71.1551 42.4209 71.2031 42.4209Z" fill="#455A64"/>
<path d="M27.6437 98.7554L57.7692 81.1689C60.0718 79.8161 61.5109 77.4004 61.6548 74.7431L62.4704 56.287C62.4704 55.8038 62.1346 55.369 61.6069 55.3207C61.1751 55.2724 60.7434 55.5623 60.5995 55.9971L56.7618 69.8633L20.9278 85.1307C16.8983 86.87 15.1713 91.6531 17.1381 95.5666C19.0569 99.5284 23.902 100.978 27.6437 98.7554Z" fill="#FFBE9D"/>
<path d="M56.7606 69.8633C56.7606 69.8633 56.6647 69.9116 56.4248 70.0565C56.185 70.1532 55.8492 70.3464 55.4174 70.5397C54.506 70.9745 53.2587 71.5543 51.6757 72.279C48.5097 73.7284 44.1443 75.661 39.2513 77.7385C34.3583 79.816 29.945 81.6037 26.683 82.8598C25.052 83.4879 23.7568 84.0194 22.8454 84.3576C22.4136 84.5025 22.0778 84.6475 21.79 84.7441C21.5502 84.8407 21.4062 84.8891 21.4062 84.8407C21.4062 84.8407 21.5022 84.7924 21.742 84.6958C21.9819 84.5992 22.3657 84.4542 22.7974 84.261C23.7088 83.8745 25.004 83.343 26.5871 82.7149C29.8011 81.4104 34.2144 79.5745 39.1074 77.497C44.0004 75.4194 48.3657 73.4869 51.5318 72.0857C53.1148 71.4093 54.3621 70.8296 55.3215 70.4431C55.7532 70.2498 56.089 70.1049 56.3289 70.0082C56.6167 69.9116 56.7606 69.8633 56.7606 69.8633Z" fill="#EB996E"/>
<path d="M100.367 93.586L69.666 79.7681C67.3155 78.7052 65.6844 76.531 65.3007 73.9703L62.7103 56.3356C62.6623 55.8524 62.9501 55.4176 63.4298 55.321C63.8616 55.2243 64.2933 55.4659 64.4372 55.9007L69.5221 68.8007L105.452 79.8164C109.961 81.2658 111.688 85.5175 110.153 89.4793C108.666 93.4411 104.205 95.3253 100.367 93.586Z" fill="#FFBE9D"/>
<path d="M69.5234 68.8008C69.5234 68.8008 69.6674 68.8491 69.9072 68.8974C70.1471 68.994 70.5308 69.0907 70.9626 69.2356C71.874 69.5255 73.1692 69.912 74.7522 70.4435C77.9663 71.4581 82.3316 72.8592 87.2246 74.3569C92.1176 75.8547 96.5309 77.1592 99.7449 78.0771C101.328 78.5603 102.623 78.8985 103.535 79.1884C103.966 79.3333 104.302 79.4299 104.59 79.4782C104.83 79.5749 104.926 79.5749 104.926 79.6232C104.926 79.6232 104.782 79.6232 104.542 79.5266C104.302 79.4782 103.918 79.3816 103.487 79.285C102.575 79.0434 101.28 78.7052 99.649 78.2704C96.435 77.4007 91.9737 76.0962 87.0807 74.5985C82.1877 73.1008 77.7744 71.6996 74.6083 70.6367C73.0253 70.1053 71.7781 69.6704 70.8666 69.3806C70.4349 69.2356 70.0991 69.0907 69.8592 69.0424C69.6194 68.8491 69.5234 68.8008 69.5234 68.8008Z" fill="#EB996E"/>
<path opacity="0.5" d="M67.9426 153.931C58.8395 153.322 49.681 152.767 40.578 153.1C31.475 153.488 22.2609 154.874 14.2125 158.089C11.0487 159.364 7.77381 161.138 7.21875 163.798C6.60818 166.681 9.49451 169.342 12.9359 170.728C19.9852 173.499 28.6997 172.058 36.0265 169.73C43.3533 167.402 50.4581 164.186 58.3955 163.521C65.0007 162.967 71.606 164.297 77.8227 166.016C84.0394 167.734 90.0896 169.841 96.5283 171.005C102.967 172.169 110.016 172.335 116.011 170.229C119.23 169.12 122.228 167.014 122.394 164.353C122.505 162.468 121.173 160.694 119.286 159.419C117.399 158.2 115.012 157.424 112.681 156.814C97.4719 152.767 80.8755 153.266 64.7787 153.821" fill="#2E3648"/>
</svg>
