<svg width="1985" height="1012" viewBox="0 0 1985 1012" fill="none" xmlns="http://www.w3.org/2000/svg">
<path d="M1197.38 84.5774C1195.22 86.0832 1194.11 86.872 1192.96 87.6607C1183.92 93.8992 1174.88 100.173 1165.8 106.376C1165.04 106.878 1164.04 107.021 1163.14 107.344C1163.72 106.735 1164.25 105.982 1164.94 105.516C1174.66 98.5242 1184.39 91.5329 1194.15 84.6491C1194.61 84.2905 1195.51 84.5774 1197.38 84.5774Z" fill="#ED1B6C"/>
<path d="M1095.24 210.242C1094.63 210.135 1094.49 210.099 1094.31 210.063C1094.38 209.633 1094.35 209.095 1094.56 208.808C1097.68 204.936 1100.88 201.135 1104.07 197.299C1104.22 197.12 1104.5 197.048 1104.75 196.905C1104.79 197.048 1104.93 197.227 1104.9 197.299C1101.67 201.709 1098.4 206.047 1095.24 210.242Z" fill="#ED1B6C"/>
<path d="M1108.99 185.729C1108.4 185.56 1108.26 185.51 1108.08 185.456C1108.2 185.035 1108.22 184.497 1108.46 184.233C1111.96 180.697 1115.52 177.239 1119.09 173.745C1119.25 173.581 1123.28 169.081 1123.55 168.963C1124.95 167.628 1134.22 157.851 1124.33 168.963C1120.67 173.024 1112.56 181.875 1108.99 185.729Z" fill="#ED1B6C"/>
<path d="M1114.96 153.627C1117.32 150.52 1126.22 141.161 1139.19 128.62C1142.89 125.29 1149.22 119.386 1152.98 116.102C1153.15 115.947 1155.34 114.297 1155.61 114.195C1155.62 114.342 1153.85 116.167 1153.8 116.232C1149.91 120.077 1122.94 143.733 1114.96 153.627Z" fill="#ED1B6C"/>
<path d="M1104.22 222.11C1101.7 225.839 1099.19 229.603 1096.64 233.332C1096.43 233.655 1095.78 233.726 1095.32 233.906C1095.28 233.583 1095.14 233.117 1095.28 232.937C1098.22 229.316 1101.24 225.731 1104.22 222.11Z" fill="#ED1B6C"/>
<path d="M1052.08 249.383C1049.97 253.356 1047.87 257.365 1045.73 261.341C1045.55 261.685 1044.92 261.824 1044.47 262.052C1044.4 261.735 1044.21 261.287 1044.33 261.093C1046.88 257.182 1049.5 253.298 1052.08 249.383Z" fill="#ED1B6C"/>
<path d="M1547.74 971.688C1548.92 971.365 1550.07 970.899 1551.26 970.755C1553.3 970.504 1555.35 970.469 1557.39 970.325C1555.31 970.791 1553.27 971.365 1551.18 971.688C1550.07 971.867 1548.85 971.652 1547.7 971.652L1547.74 971.688Z" fill="#ED1B6C"/>
<path d="M1205.52 79.7725C1205.27 80.0234 1205.06 80.3461 1204.77 80.4895C1203.62 81.099 1202.44 81.6368 1201.25 82.2463C1201.25 81.9595 1201.15 81.4575 1201.25 81.3858C1202.58 80.7405 1203.95 80.131 1205.27 79.5215C1205.38 79.5932 1205.45 79.7007 1205.52 79.7725Z" fill="#ED1B6C"/>
<path d="M1157.79 113.474C1157.11 112.613 1156.9 112.362 1156.9 112.326C1158.12 111.179 1159.34 110.032 1160.59 108.92C1160.63 108.884 1161.06 109.279 1161.06 109.315C1160.06 110.641 1159.01 111.932 1157.79 113.474Z" fill="#ED1B6C"/>
<path d="M1112.94 213.361C1111.57 214.473 1110.42 215.405 1109.24 216.337C1109.1 216.158 1108.81 215.799 1108.81 215.799C1109.92 214.831 1111.03 213.863 1112.18 212.931C1112.22 212.895 1112.47 213.11 1112.94 213.361Z" fill="#ED1B6C"/>
<path d="M1127.76 186.185C1128.15 185.79 1128.58 185.432 1128.98 185.038C1129.66 184.464 1130.34 183.89 1131.02 183.281C1131.1 183.352 1131.2 183.424 1131.27 183.532C1130.13 184.428 1128.94 185.324 1127.76 186.185Z" fill="#ED1B6C"/>
<path d="M1089.97 200.631C1090.47 200.166 1090.83 199.844 1091.22 199.486C1091.33 199.629 1091.54 199.844 1091.51 199.88C1091.19 200.273 1090.86 200.667 1090.51 201.025C1090.47 201.061 1090.18 200.846 1089.97 200.631Z" fill="#ED1B6C"/>
<path d="M1162.85 152.841C1163.29 152.805 1163.72 152.769 1164.15 152.733C1163.21 153.415 1162.24 154.096 1161.31 154.777C1161.81 154.132 1162.35 153.486 1162.85 152.841Z" fill="#ED1B6C"/>
<path d="M1113.87 842.941C1114.62 843.73 1115.34 844.519 1116.09 845.308C1115.34 844.519 1114.62 843.73 1113.87 842.941Z" fill="#ED1B6C"/>
<path d="M1040.79 254.848C1040.46 255.243 1038.51 259.79 1038.26 260.149C1038.15 259.934 1037.9 259.647 1037.97 259.503C1038.15 259.145 1040.53 255.171 1040.79 254.848Z" fill="#ED1B6C"/>
<path d="M1103.57 213.576C1104.25 213.217 1104.9 212.859 1105.58 212.5C1104.93 212.859 1104.25 213.217 1103.57 213.576Z" fill="#ED1B6C"/>
<path d="M1208.22 78.1602C1207.32 78.698 1206.42 79.2358 1205.52 79.7736C1205.45 79.7019 1205.38 79.5943 1205.31 79.5226C1206.21 78.9848 1207.1 78.447 1208 77.9092C1208.04 77.9809 1208.14 78.0884 1208.22 78.1602Z" fill="#ED1B6C"/>
<path d="M1150.47 173.277C1150.9 173.242 1151.34 173.206 1151.77 173.17C1151.01 173.528 1150.26 173.887 1149.47 174.246C1149.83 173.923 1150.15 173.6 1150.47 173.277Z" fill="#ED1B6C"/>
<path d="M1078.27 794.319C1077.84 793.782 1077.44 793.21 1077.01 792.673C1077.16 792.637 1077.41 792.53 1077.44 792.602C1077.8 793.103 1078.12 793.603 1078.48 794.104C1078.41 794.176 1078.34 794.247 1078.27 794.319Z" fill="#ED1B6C"/>
<path d="M1104.25 222.142C1104.54 221.642 1104.82 221.141 1105.08 220.64C1105.22 220.747 1105.36 220.854 1105.51 220.962C1105.08 221.319 1104.65 221.713 1104.25 222.142C1104.22 222.107 1104.25 222.142 1104.25 222.142Z" fill="#ED1B6C"/>
<path d="M1547.71 971.652C1546.63 971.832 1545.52 971.975 1544.44 972.154L1544.48 972.19C1545.55 972.011 1546.66 971.867 1547.74 971.688L1547.71 971.652Z" fill="#ED1B6C"/>
<path d="M1273.21 972.19C1275.04 972.907 1276.83 973.624 1278.66 974.377C1278.98 974.735 1279.34 975.094 1279.67 975.452L1279.7 975.417C1271.95 972.19 1264.23 968.963 1256.48 965.736C1262.05 967.887 1267.61 970.039 1273.21 972.19Z" fill="#ED1B6C"/>
<path d="M1068.94 806.694C1069.19 807.447 1069.48 808.235 1069.73 808.988C1069.44 808.235 1069.19 807.447 1068.94 806.694Z" fill="#ED1B6C"/>
<path d="M1565.14 39.0099C1564.95 38.9746 1564.76 38.9391 1564.57 38.9035C1560.3 38.3752 1551.37 42.2048 1517.55 33.2162C1513.58 32.1611 1510.06 31.3437 1506.9 30.7208C1500.15 30.0461 1493.45 29.4959 1487.02 29.1324C1478.41 29.8132 1473.45 32.3115 1461.88 30.9896C1455.55 30.2666 1449.09 31.1239 1443.94 32.3293C1432.66 34.9674 1427.63 39.273 1443.94 32.3293C1444.17 32.2321 1444.4 32.1328 1444.64 32.0313C1452.68 28.5787 1468.69 28.0948 1487.02 29.1324C1491.88 28.7489 1497.89 28.9422 1506.9 30.7208C1528.28 32.858 1550.08 36.2444 1564.57 38.9035C1564.77 38.9285 1564.96 38.9634 1565.14 39.0099Z" fill="#ED1B6C"/>
<path fill-rule="evenodd" clip-rule="evenodd" d="M1886.46 806.917C1888.04 804.853 1889.62 802.79 1891.21 800.742C1892.19 799.284 1893.15 797.856 1894.12 796.43L1894.12 796.428C1895.86 793.867 1897.59 791.317 1899.32 788.623C1900.39 786.996 1901.56 785.433 1902.73 783.87L1902.73 783.869C1904.01 782.161 1905.29 780.453 1906.43 778.656C1910.16 772.74 1913.86 766.789 1917.2 760.658C1918.54 758.19 1919.9 755.728 1921.25 753.264L1921.25 753.262L1921.25 753.26L1921.26 753.259C1926.56 743.624 1931.87 733.979 1936.5 724.016C1940.6 715.242 1944.09 706.169 1947.58 697.107L1947.58 697.106L1947.58 697.106L1947.58 697.105L1947.58 697.105C1948.93 693.615 1950.27 690.126 1951.65 686.657C1952.08 685.572 1952.51 684.487 1952.95 683.401L1952.95 683.4L1952.95 683.4L1952.95 683.399L1952.95 683.398C1955.02 678.241 1957.09 673.063 1958.75 667.763C1962.23 656.577 1965.46 645.319 1968.48 633.989C1968.63 633.418 1968.78 632.847 1968.93 632.277L1969.2 631.281C1972.23 619.849 1975.26 608.406 1977.56 596.81C1979.78 585.659 1981.25 574.294 1982.44 562.928C1983.59 551.778 1984.55 540.52 1984.63 529.334C1984.65 524.5 1984.73 519.53 1984.81 514.513V514.508V514.507V514.505V514.504C1984.97 504.27 1985.13 493.842 1984.84 483.98C1984.53 480.183 1984.3 476.376 1984.07 472.569L1984.07 472.565C1983.57 464.402 1983.08 456.242 1981.83 448.199C1978.53 426.651 1974.43 405.247 1970.31 383.843C1957.85 319.389 1926.09 259.942 1886.51 208.199C1852.64 164.094 1815.37 125.078 1769.05 93.4689C1702.56 48.0446 1632.68 18.3152 1551.98 6.56111C1538.42 4.61429 1524.75 3.27976 1511.1 1.94677C1507.9 1.63499 1504.71 1.3233 1501.52 1.00388C1497.34 0.588712 1493.14 0.423071 1488.95 0.257668C1486.99 0.180248 1485.03 0.10288 1483.07 0H1477.15H1473.38H1471.77L1471.77 0.000125527L1471.77 0.00014472C1470.87 0.322774 1469.97 0.645392 1469.04 0.896326C1468.89 0.921649 1468.7 0.821768 1468.52 0.723016C1468.44 0.681955 1468.36 0.64109 1468.29 0.609502C1468.43 0.501943 1468.57 0.403347 1468.7 0.304751C1468.83 0.206155 1468.97 0.107559 1469.11 0H1466.42C1464.33 0.144296 1462.23 0.276977 1460.13 0.40973C1457.01 0.606826 1453.88 0.80408 1450.77 1.03974C1440.8 1.8285 1430.82 2.65312 1420.88 3.54945C1418.82 3.72969 1416.76 3.89554 1414.7 4.06128C1408.15 4.58788 1401.62 5.11329 1395.15 6.09502C1385.1 7.60084 1375.09 9.50105 1365.22 11.8674C1351.87 15.0583 1338.59 18.6794 1325.42 22.5516C1322.21 23.5055 1319.14 24.8845 1316.06 26.2659C1313.71 27.3247 1311.34 28.3849 1308.91 29.2561C1305.53 30.4591 1302.07 31.4766 1298.61 32.4933C1295.99 33.2642 1293.38 34.0346 1290.79 34.885C1290.15 35.1051 1289.62 35.6257 1289.09 36.1488C1288.58 36.648 1288.07 37.1496 1287.45 37.3947C1284.49 38.6142 1281.5 39.7663 1278.51 40.9177L1278.51 40.9179C1273.95 42.6777 1269.39 44.4358 1264.92 46.4297C1256.77 50.0508 1248.8 54.0305 1240.94 58.1536C1231.11 63.3165 1221.39 68.7661 1211.7 74.2158C1210.71 74.7709 1209.91 75.6672 1209.11 76.5656L1209.11 76.5657L1209.11 76.5658L1209.11 76.5659L1209.11 76.566C1208.73 77.002 1208.34 77.4386 1207.93 77.8369C1208 77.8859 1208.06 77.9517 1208.11 78.0113L1208.11 78.0114C1208.13 78.039 1208.16 78.0652 1208.18 78.0879C1212.54 75.8309 1216.88 73.5369 1221.22 71.2435L1221.22 71.2434C1229.7 66.7606 1238.18 62.28 1246.79 58.0819C1256.22 53.5156 1265.78 49.2578 1275.35 44.9987L1275.36 44.9983L1275.36 44.9979C1279.24 43.2713 1283.12 41.5445 1286.99 39.7969C1288.3 39.2093 1289.6 38.5968 1290.9 37.9843C1294.52 36.2795 1298.14 34.5756 1301.92 33.415C1304.77 32.5375 1307.72 31.9545 1310.67 31.3727C1314.46 30.6232 1318.24 29.8757 1321.8 28.5032L1322.37 28.2839L1322.93 28.0669C1329.5 25.5235 1335.98 23.0157 1343.01 21.7269C1349.32 20.572 1355.58 19.1006 1361.84 17.6282L1361.84 17.628C1365.69 16.7236 1369.54 15.8187 1373.4 14.9866C1374.7 14.7124 1376.05 14.6805 1377.39 14.6486C1378.68 14.6179 1379.98 14.5873 1381.23 14.3412C1383.87 13.8149 1386.51 13.1667 1389.14 12.5189C1393.49 11.4457 1397.85 10.3738 1402.26 9.85958C1411.37 8.75595 1420.59 8.28143 1429.78 7.80844C1431.33 7.72827 1432.89 7.64813 1434.45 7.56499C1439.79 7.27794 1445.14 7.15049 1450.5 7.02291C1453.18 6.95927 1455.85 6.8956 1458.53 6.81208C1459.74 6.77592 1460.95 6.73522 1462.16 6.69455C1465.74 6.57388 1469.32 6.45355 1472.92 6.45355C1474.98 6.45355 1477.04 6.56171 1479.1 6.66989C1480.97 6.76829 1482.84 6.8667 1484.72 6.88378C1486.53 6.91295 1488.34 6.865 1490.14 6.81715C1492.76 6.74736 1495.38 6.67777 1498 6.84793C1509.63 7.63668 1521.22 8.67639 1532.81 9.71611L1532.81 9.71617C1533.8 9.79215 1534.75 10.1722 1535.71 10.5532C1536.11 10.7115 1536.5 10.87 1536.9 11.0069C1536.43 11.019 1535.96 11.0351 1535.5 11.0512C1534.58 11.0829 1533.67 11.1144 1532.74 11.1144C1531.59 11.1503 1530.44 11.1503 1529.29 11.1144C1525.92 10.9706 1522.56 10.8028 1519.19 10.635C1512.49 10.3009 1505.79 9.96695 1499.08 9.82373C1495.63 9.74905 1492.18 9.7219 1488.74 9.71678C1488.92 9.68545 1489.1 9.64701 1489.28 9.60837C1489.46 9.57065 1489.64 9.53274 1489.82 9.50105C1489.62 9.41977 1489.42 9.31593 1489.23 9.21145C1488.81 8.99331 1488.39 8.77238 1487.95 8.74814C1485.49 8.67008 1483.03 8.56812 1480.56 8.46612L1480.56 8.46611C1473.97 8.19329 1467.37 7.92012 1460.79 8.10279C1447.54 8.49717 1434.3 9.21423 1421.1 10.4332C1415.62 10.928 1410.19 11.9861 1404.76 13.0422C1402.32 13.5166 1399.88 13.9906 1397.45 14.4129C1395.58 14.7468 1393.71 15.0772 1391.84 15.4074L1391.83 15.4094C1387.69 16.1423 1383.55 16.874 1379.4 17.6397C1375.41 18.3661 1371.41 19.067 1367.42 19.7679L1367.42 19.768C1357.22 21.5578 1347.01 23.3476 1336.91 25.5632C1329.26 27.2483 1321.87 30.0807 1314.55 32.9489C1305.43 36.5164 1296.35 40.2464 1287.27 43.9777L1287.26 43.978C1282.2 46.059 1277.13 48.1404 1272.06 50.1942C1269.61 51.1862 1267.12 52.1077 1264.63 53.0298C1260.02 54.7406 1255.4 56.4531 1250.99 58.6197C1239.26 64.3562 1227.7 70.4512 1216.36 76.9048C1203.55 84.2188 1190.78 91.7121 1178.54 99.9224C1174.48 102.619 1171.03 106.22 1167.59 109.819L1167.59 109.819C1166.04 111.436 1164.49 113.052 1162.89 114.586C1162.44 115.052 1161.99 115.51 1161.55 115.967C1161.1 116.424 1160.65 116.881 1160.2 117.347C1158.97 118.38 1157.74 119.419 1156.52 120.459L1156.51 120.461L1156.51 120.464C1153.69 122.852 1150.87 125.243 1148 127.565C1145.87 129.294 1143.7 130.989 1141.53 132.685L1141.53 132.685L1141.53 132.685L1141.53 132.685L1141.53 132.686C1137.32 135.985 1133.1 139.287 1129.12 142.838C1127 144.721 1125.23 147.009 1123.46 149.3C1122.29 150.804 1121.13 152.309 1119.86 153.702C1116.53 157.347 1113.1 160.908 1109.68 164.466L1109.68 164.466L1109.68 164.466L1109.68 164.466L1109.68 164.466L1109.68 164.468L1109.67 164.47L1109.67 164.471L1109.67 164.473C1108.11 166.091 1106.55 167.709 1105.01 169.334C1105.01 169.516 1105.01 169.693 1105.02 169.868V169.868V169.869V169.869C1105.04 170.211 1105.05 170.543 1105.01 170.876C1104.98 170.979 1104.71 171.026 1104.46 171.072C1104.36 171.089 1104.26 171.106 1104.18 171.127C1104.27 170.894 1104.35 170.652 1104.43 170.41L1104.43 170.409C1104.51 170.167 1104.59 169.925 1104.68 169.692C1103.1 171.449 1101.49 173.206 1099.87 174.963C1100.2 174.687 1100.54 174.429 1100.88 174.175L1100.88 174.175C1101.03 174.067 1101.17 173.959 1101.31 173.851L1101.52 174.174C1101.26 174.353 1100.98 174.524 1100.7 174.694C1100.42 174.864 1100.14 175.035 1099.87 175.214C1099.13 176.189 1098.41 177.178 1097.68 178.166C1095.99 180.484 1094.29 182.804 1092.37 184.966C1089.89 187.767 1087.33 190.511 1084.78 193.253C1080.68 197.67 1076.57 202.083 1072.74 206.729C1070.1 209.947 1067.89 213.525 1065.68 217.104L1065.68 217.105C1064.47 219.067 1063.26 221.03 1061.98 222.934C1058.77 227.737 1055.47 232.726 1052.17 237.716L1052.16 237.72C1048.86 242.711 1045.56 247.702 1042.35 252.507C1044.38 249.629 1046.94 246.681 1049.47 243.76C1051.65 241.258 1053.8 238.777 1055.59 236.379C1061.19 228.886 1066.93 221.536 1072.78 214.258C1076.07 210.175 1079.53 206.261 1082.99 202.338L1082.99 202.337L1083 202.336L1083 202.335L1083 202.334L1083 202.333C1084.07 201.124 1085.14 199.914 1086.2 198.698C1086.47 198.378 1086.88 198.194 1087.29 198.006C1087.48 197.919 1087.67 197.831 1087.85 197.729C1087.79 197.945 1087.76 198.184 1087.72 198.423C1087.65 198.901 1087.58 199.379 1087.31 199.666C1086.72 200.304 1086.06 200.889 1085.41 201.474C1084.45 202.335 1083.49 203.194 1082.72 204.219C1077.7 210.923 1072.78 217.735 1067.97 224.583C1065.34 228.342 1063.06 232.142 1060.77 235.955L1060.77 235.955L1060.77 235.956L1060.77 235.956L1060.77 235.956C1058.87 239.126 1056.96 242.306 1054.84 245.48L1054.75 245.613C1054.69 245.691 1054.66 245.738 1054.63 245.786L1054.57 245.874L1054.5 245.974C1054.35 246.181 1054.07 246.595 1053.29 247.709L1053.29 247.708L1053.3 247.706L1053.3 247.705C1053.66 247.387 1053.85 247.222 1054.04 247.05C1054.24 246.862 1054.43 246.668 1054.84 246.262L1054.84 246.261L1054.84 246.261C1055.48 245.362 1056.11 244.465 1056.75 243.568L1056.75 243.568C1059.35 239.885 1061.94 236.226 1064.74 232.65C1067.21 229.483 1069.67 226.296 1072.12 223.11L1072.12 223.109L1072.12 223.108L1072.12 223.107L1072.12 223.106L1072.12 223.106L1072.12 223.106C1079.88 213.021 1087.64 202.934 1096.07 193.427C1107.63 180.347 1120.03 167.975 1132.4 155.626C1133.39 154.638 1134.38 153.65 1135.37 152.662C1143.51 144.524 1152.16 136.743 1160.92 129.214C1163.86 126.682 1167.13 124.512 1170.39 122.346L1170.39 122.346L1170.39 122.345L1170.39 122.345L1170.39 122.345L1170.39 122.345L1170.39 122.345L1170.39 122.344L1170.39 122.344C1172.26 121.106 1174.12 119.869 1175.92 118.566C1178.24 116.884 1180.52 115.144 1182.8 113.405L1182.8 113.405C1186.69 110.434 1190.58 107.467 1194.65 104.798C1200.17 101.194 1205.81 97.7899 1211.46 94.3863C1215.35 92.0348 1219.25 89.6835 1223.11 87.2663C1241.55 75.7216 1260.93 66.0413 1281.21 58.1178C1283.67 57.135 1286.13 56.1419 1288.59 55.1487L1288.59 55.1482L1288.59 55.148C1297.35 51.612 1306.11 48.0744 1315.05 44.9956C1325.32 41.4612 1335.78 38.4363 1346.24 35.4107L1346.24 35.4106L1346.25 35.4091C1347.88 34.9363 1349.52 34.4634 1351.15 33.9887C1357.04 32.2677 1363.03 30.6543 1369.06 29.5429C1372.84 28.866 1376.64 28.4082 1380.45 27.95C1383.7 27.5588 1386.96 27.1673 1390.2 26.6388C1392.66 26.2405 1395.08 25.6578 1397.51 25.0756C1400.32 24.4002 1403.14 23.7254 1405.99 23.3403C1413.73 22.3255 1421.5 21.526 1429.27 20.7261C1432.48 20.3956 1435.69 20.0651 1438.9 19.7192C1439.8 19.6194 1440.69 19.5081 1441.59 19.3969C1444.23 19.0689 1446.86 18.7421 1449.52 18.7153C1454.12 18.6705 1458.71 18.7657 1463.31 18.8609C1466.07 18.9181 1468.83 18.9752 1471.59 19.0021C1474.58 19.0226 1477.58 19.0372 1480.57 19.0519C1488.06 19.0884 1495.54 19.125 1503.03 19.2531C1504.18 19.2781 1505.33 19.7036 1506.48 20.1292C1506.91 20.2895 1507.34 20.4499 1507.78 20.5888C1506.68 20.6328 1505.58 20.6909 1504.48 20.7491C1501.89 20.8862 1499.3 21.0233 1496.71 20.974C1495.3 20.9416 1493.89 20.7403 1492.49 20.5395C1490.79 20.2967 1489.1 20.0547 1487.42 20.1136C1476.92 20.4568 1466.45 20.9901 1455.97 21.5244C1454.4 21.6041 1452.84 21.6837 1451.28 21.7628C1449.7 21.8448 1448.12 21.9235 1446.54 22.0022C1439.15 22.3706 1431.76 22.7388 1424.4 23.4479C1420.23 23.8452 1416.1 24.5354 1411.97 25.2266C1409.01 25.7203 1406.06 26.2145 1403.08 26.6029C1400.74 26.901 1398.37 27.0923 1396 27.2837C1392.39 27.5756 1388.78 27.8676 1385.25 28.539C1381.83 29.1831 1378.5 30.213 1375.17 31.2435C1372.94 31.9339 1370.71 32.6246 1368.45 33.1999C1365.48 33.9536 1362.48 34.5936 1359.47 35.2333L1359.47 35.2333C1354.04 36.3888 1348.61 37.5435 1343.44 39.3666C1341.54 40.0347 1339.65 40.7017 1337.76 41.3687C1317.5 48.5057 1297.24 55.6458 1277.51 64.1052C1264.72 69.5731 1252.45 76.3385 1240.21 83.0907C1236.56 85.1048 1232.91 87.1178 1229.25 89.0948C1221.67 93.1462 1214.32 97.6995 1207.18 102.468C1198.42 108.348 1189.81 114.479 1181.37 120.825C1174.02 126.346 1166.8 132.118 1159.8 138.106C1155.28 142.002 1150.95 146.104 1146.61 150.209L1146.61 150.21C1144.96 151.772 1143.31 153.334 1141.65 154.885C1141.14 155.367 1140.72 155.974 1140.3 156.58C1140.13 156.831 1139.96 157.082 1139.78 157.323C1140.05 157.167 1140.33 157.019 1140.61 156.871C1141.3 156.511 1141.99 156.146 1142.58 155.638C1146.8 151.997 1151 148.315 1155.2 144.634L1155.2 144.633C1157.74 142.406 1160.28 140.179 1162.82 137.962C1163.21 137.603 1163.74 137.427 1164.27 137.251C1164.49 137.181 1164.7 137.111 1164.9 137.03C1164.75 137.227 1164.62 137.432 1164.48 137.635C1164.23 138.025 1163.98 138.409 1163.64 138.715C1160.65 141.479 1157.62 144.21 1154.59 146.94L1154.59 146.941L1154.59 146.942L1154.59 146.943L1154.58 146.944C1148.74 152.216 1142.89 157.485 1137.27 162.988C1129.67 170.413 1122.28 178.059 1114.9 185.701L1114.9 185.701L1114.9 185.703L1114.89 185.704L1114.89 185.706L1114.89 185.708C1112.43 188.249 1109.98 190.789 1107.52 193.32C1107.19 193.649 1106.97 194.087 1106.74 194.531L1106.74 194.531C1106.62 194.764 1106.5 194.998 1106.37 195.22C1106.59 195.072 1106.82 194.942 1107.05 194.812C1107.49 194.563 1107.92 194.318 1108.27 193.965C1110.38 191.856 1112.47 189.716 1114.56 187.574L1114.56 187.574C1117.91 184.144 1121.26 180.711 1124.71 177.401L1125.88 176.271C1134.64 167.828 1143.38 159.401 1152.48 151.336C1158.58 145.968 1164.9 140.842 1171.21 135.717L1171.21 135.717L1171.22 135.714C1174.01 133.446 1176.8 131.179 1179.58 128.892C1179.86 128.655 1180.26 128.543 1180.65 128.433C1180.85 128.376 1181.05 128.319 1181.23 128.246C1181.12 128.43 1181.03 128.635 1180.93 128.84C1180.75 129.236 1180.57 129.636 1180.26 129.896C1177.54 132.179 1174.79 134.433 1172.05 136.686L1172.05 136.686L1172.05 136.687L1172.05 136.688L1172.04 136.688L1172.04 136.689L1172.04 136.689L1172.04 136.689L1172.04 136.689C1166.39 141.331 1160.73 145.97 1155.32 150.87C1145.74 159.546 1136.33 168.473 1127.33 177.723C1119.8 185.45 1112.65 193.521 1105.49 201.59C1104.02 203.256 1102.54 204.922 1101.06 206.585C1100.17 207.573 1099.57 208.811 1098.96 210.055C1098.49 211.024 1098.01 211.997 1097.4 212.859C1096.52 214.084 1095.64 215.309 1094.76 216.535L1094.75 216.548C1075.89 242.857 1056.94 269.283 1043.5 298.907C1041.27 303.825 1031.23 330.957 1033.76 325.901C1043.58 304.758 1054 283.094 1066.55 263.438C1084.8 234.733 1104.03 208.783 1127.79 186.292C1127.99 186.095 1128.2 185.907 1128.4 185.719L1128.4 185.718C1128.61 185.53 1128.82 185.342 1129.01 185.145L1130.74 182.671C1130.84 182.886 1130.95 183.137 1131.06 183.388C1131.11 183.462 1131.17 183.518 1131.23 183.57L1131.23 183.57C1131.26 183.594 1131.29 183.617 1131.31 183.639C1132.66 182.286 1134.01 180.931 1135.36 179.576L1135.37 179.573C1139.42 175.508 1143.46 171.449 1147.6 167.469C1150.86 164.318 1154.24 161.263 1157.61 158.206L1157.62 158.202L1157.62 158.198L1157.63 158.195C1158.86 157.081 1160.09 155.968 1161.31 154.849C1161.63 154.412 1161.97 153.989 1162.31 153.571L1162.31 153.571L1162.31 153.57C1162.49 153.338 1162.68 153.108 1162.86 152.877C1163.12 152.626 1163.39 152.384 1163.66 152.142C1163.93 151.9 1164.2 151.658 1164.47 151.407C1164.4 151.772 1164.37 152.166 1164.33 152.535V152.535L1164.33 152.626C1164.86 152.304 1165.4 151.981 1165.91 151.622C1170.68 148.052 1175.43 144.438 1180.18 140.825L1180.18 140.824L1180.18 140.824C1191.74 132.029 1203.3 123.235 1215.25 115.052C1227.45 106.663 1240.59 99.528 1253.68 92.5008C1265.49 86.1907 1277.51 80.1674 1289.89 75.0762C1304.68 69.0171 1319.75 63.5316 1335 58.8707C1351.33 53.8871 1367.84 49.4413 1384.6 45.9636C1428.13 37.2513 1472.09 35.2435 1516.34 39.1157C1553.34 42.3783 1589.51 49.5847 1624.79 61.237C1636.89 65.2412 1648.73 69.7377 1660.31 74.7061C1650.55 70.6528 1640.57 67.0525 1630.28 64.0243C1628.54 63.4508 1626.68 62.7619 1624.81 62.0729L1624.81 62.0724C1622.95 61.3832 1621.09 60.6941 1619.35 60.1204C1616.19 59.0807 1612.39 57.8577 1609.2 56.9973C1606.33 56.2101 1603.41 55.3636 1600.47 54.5103C1593.77 52.5654 1586.94 50.5849 1580.31 49.1894C1568.25 46.6439 1552.69 43.5606 1540.49 42.1624C1520.75 39.9395 1506.91 39.0392 1485.83 38.2584C1484.11 38.2584 1482.08 38.2478 1479.92 38.2366L1479.92 38.2366H1479.92C1475.22 38.2121 1469.98 38.1847 1466.31 38.2584C1458.28 38.4336 1453.68 38.8796 1445.87 39.6358L1445.32 39.6893C1430.68 41.1234 1416.04 42.8802 1401.47 45.1031C1387.83 47.1467 1374.3 49.8357 1360.81 52.5964C1358.52 53.0584 1356.32 54.0003 1354.12 54.9463L1354.12 54.9464C1352.56 55.6153 1351 56.2863 1349.39 56.7912C1345.95 57.8777 1342.47 58.8756 1338.99 59.8741C1332.81 61.6431 1326.64 63.4139 1320.65 65.6827C1306.44 71.0248 1292.37 76.833 1278.52 83.1073C1266.46 88.557 1254.62 94.5086 1243.06 100.962C1235.31 105.269 1227.87 110.151 1220.43 115.035L1220.43 115.036C1218.4 116.371 1216.36 117.708 1214.32 119.032C1211.69 120.736 1209.22 122.651 1206.75 124.566L1206.75 124.566L1206.75 124.566L1206.75 124.566L1206.75 124.567C1205.84 125.271 1204.93 125.975 1204.02 126.669C1200.36 129.425 1196.72 132.181 1193.07 134.937L1193.05 134.951L1193.03 134.969L1193.02 134.974L1193.02 134.978L1193.01 134.983C1189.37 137.733 1185.74 140.483 1182.09 143.233C1180.57 144.379 1179 145.482 1177.43 146.588C1174.19 148.872 1170.94 151.163 1168.06 153.845C1158.58 162.635 1149.34 171.692 1140.11 180.74L1140.11 180.741L1140.09 180.764C1138.63 182.189 1137.18 183.614 1135.72 185.038C1131.02 189.663 1126.47 194.431 1121.98 199.271C1119.46 202.009 1117.13 204.908 1114.79 207.805L1114.79 207.807L1114.79 207.808C1114.44 208.249 1114.08 208.69 1113.73 209.131C1113.49 209.418 1113.5 209.896 1113.52 210.374C1113.53 210.613 1113.53 210.852 1113.51 211.067C1113.74 210.999 1113.99 210.952 1114.25 210.906L1114.25 210.906C1114.8 210.805 1115.36 210.704 1115.63 210.386C1116.4 209.471 1117.11 208.498 1117.81 207.526L1117.81 207.526L1117.81 207.526L1117.81 207.526L1117.81 207.526C1118.68 206.327 1119.55 205.128 1120.54 204.04C1122.29 202.127 1124.13 200.315 1125.98 198.507C1127.24 197.264 1128.5 196.024 1129.73 194.754C1134.17 190.128 1138.59 185.486 1143.01 180.85L1143.01 180.846L1143.01 180.842L1143.02 180.838L1143.02 180.834C1145.17 178.576 1147.32 176.319 1149.47 174.066L1150.44 173.098C1150.68 173.038 1150.93 172.971 1151.18 172.903L1151.18 172.903C1151.53 172.81 1151.88 172.715 1152.23 172.632C1154.64 170.415 1156.99 168.137 1159.35 165.86C1164.31 161.07 1169.26 156.281 1174.66 152.053C1188.69 141.082 1203.16 130.648 1217.73 120.394C1224.8 115.416 1232.3 110.998 1239.78 106.596C1240.75 106.021 1241.73 105.446 1242.7 104.87C1246.63 102.552 1250.68 100.424 1254.73 98.2971C1256.75 97.2335 1258.78 96.1698 1260.79 95.0822C1261.13 94.8672 1261.48 94.6521 1261.83 94.437C1262.18 94.2219 1262.53 94.0067 1262.87 93.7915C1262.87 94.1141 1262.84 94.4366 1262.8 94.7592L1262.8 94.7596C1265.28 93.5884 1267.76 92.3905 1270.24 91.192L1270.24 91.1914L1270.24 91.191C1275.35 88.7209 1280.47 86.2485 1285.66 84.0037C1296.57 79.2711 1307.51 74.5384 1318.68 70.5229C1329.23 66.7583 1339.96 63.424 1350.83 60.7709C1351.64 60.5729 1352.45 60.3746 1353.26 60.1762C1368.57 56.4244 1383.95 52.655 1399.53 50.3735C1420.02 47.3619 1440.73 45.2107 1461.43 44.2068C1486.48 42.9878 1511.5 44.4219 1536.44 47.7562C1564.82 51.5925 1592.64 57.8668 1619.91 66.5074C1651.27 76.4387 1681.49 89.2382 1709.59 106.268C1729.15 118.136 1748.13 131.15 1766.15 145.205C1782.8 158.219 1798.37 172.812 1813.52 187.619C1834.19 207.84 1851.7 230.858 1867.56 254.987C1897.74 300.95 1919.56 350.607 1932.02 404.243C1942.96 451.497 1946.41 499.289 1942.71 547.655C1940.09 581.966 1933.81 615.561 1923.69 648.438C1910.59 691.067 1891.54 730.9 1866.95 768.151C1847.75 797.3 1825.58 823.938 1800.42 848.068C1774.19 873.201 1745.33 894.927 1713.5 912.531C1711.25 913.775 1709.01 915.029 1706.77 916.284L1706.75 916.291C1695.74 922.448 1684.7 928.617 1673.17 933.649C1653.46 942.218 1633.29 949.711 1613.13 957.097C1603.26 960.682 1593.03 963.371 1582.77 965.701C1574.04 967.686 1565.23 969.3 1556.42 970.916L1556.4 970.919L1556.39 970.921L1556.37 970.923L1556.37 970.925C1552.62 971.612 1548.87 972.299 1545.12 973.015C1543.86 973.254 1542.59 973.461 1541.32 973.668L1541.32 973.669L1541.31 973.67C1541.05 973.712 1540.79 973.754 1540.54 973.797C1540.16 973.858 1539.79 973.92 1539.41 973.983C1540.22 973.696 1541.03 973.4 1541.84 973.104C1542.65 972.809 1543.45 972.513 1544.26 972.227C1544.32 972.197 1544.38 972.12 1544.42 972.054L1544.48 972.047L1544.44 972.011C1544.43 972.025 1544.42 972.039 1544.42 972.054C1541.48 972.391 1538.54 972.717 1535.6 973.043C1527.6 973.931 1519.59 974.82 1511.6 975.919C1483.4 979.863 1455.08 978.931 1426.87 977.067C1396.87 975.095 1367.16 969.753 1338.41 961.184C1270.17 940.895 1208.61 908.968 1154.49 862.409C1129.98 841.291 1107.19 818.381 1086.2 793.714C1085.81 793.249 1085.24 792.932 1084.66 792.617C1084.44 792.495 1084.22 792.374 1084.01 792.244C1084.09 792.523 1084.15 792.813 1084.2 793.101C1084.33 793.738 1084.46 794.368 1084.8 794.862C1086.24 796.992 1087.64 799.156 1089.04 801.319C1092.58 806.802 1096.12 812.277 1100.34 817.162C1110.68 829.137 1121.55 840.682 1132.75 851.904C1138.64 857.794 1144.91 863.312 1151.18 868.83L1151.18 868.83L1151.18 868.832C1153.91 871.229 1156.63 873.626 1159.32 876.053C1158.35 875.344 1157.36 874.655 1156.37 873.965L1156.37 873.961C1153.77 872.158 1151.18 870.352 1148.93 868.181C1146.44 865.782 1143.95 863.384 1141.45 860.985L1141.45 860.983L1141.45 860.983C1127.8 847.863 1114.12 834.715 1100.95 821.106C1095.33 815.292 1090.33 808.893 1085.33 802.493C1083.11 799.658 1080.9 796.822 1078.63 794.037L1078.41 794.252C1078.98 795.16 1079.53 796.082 1080.08 797.004L1080.08 797.005L1080.08 797.005L1080.08 797.006L1080.08 797.006L1080.08 797.007C1081.35 799.142 1082.63 801.285 1084.08 803.287C1087.74 808.347 1091.51 813.311 1095.28 818.277L1096.32 819.647C1096.68 820.121 1097.04 820.595 1097.4 821.07L1097.76 821.536C1100.47 825.068 1103.18 828.6 1105.9 832.132C1108.62 835.663 1111.34 839.194 1114.05 842.725C1114.77 843.586 1115.48 844.411 1116.2 845.235L1116.2 845.238C1119.51 848.966 1122.81 852.693 1126.07 856.421C1126.29 856.668 1126.45 856.966 1126.6 857.267L1126.6 857.268C1126.68 857.405 1126.75 857.542 1126.82 857.676C1126.71 857.604 1126.58 857.537 1126.46 857.469C1126.21 857.334 1125.96 857.198 1125.75 857.031C1124.94 856.351 1124.09 855.695 1123.25 855.038L1123.25 855.037C1121.33 853.545 1119.41 852.047 1117.82 850.255C1107.59 838.746 1097.36 827.165 1087.49 815.334C1086 813.549 1084.5 811.77 1083 809.989L1083 809.988L1082.99 809.981C1075.56 801.176 1068.11 792.344 1061.87 782.743C1052.95 769.007 1044.72 754.8 1036.49 740.601L1036.49 740.601L1036.49 740.597L1036.49 740.596C1033.6 735.599 1030.7 730.603 1027.78 725.629C1025.92 722.456 1024.13 719.702 1022.35 716.958C1020.44 714.029 1018.55 711.11 1016.58 707.704C1016.28 707.186 1015.95 706.686 1015.55 706.082L1015.55 706.081L1015.55 706.078L1015.55 706.074L1015.55 706.073C1015.01 705.256 1014.35 704.25 1013.46 702.755C1014.11 704.184 1014.85 706.064 1015.44 707.569L1015.54 707.81C1016.89 711.171 1018.21 714.541 1019.53 717.91L1019.53 717.91C1021.95 724.066 1024.36 730.22 1026.92 736.314C1028.82 740.939 1031.08 745.456 1033.56 749.83C1041.13 763.096 1048.74 776.397 1056.7 789.448C1059.25 793.615 1062.23 797.54 1065.21 801.463L1065.21 801.464C1066.52 803.177 1067.82 804.889 1069.08 806.622C1069.21 806.998 1069.34 807.383 1069.48 807.769C1069.61 808.154 1069.75 808.54 1069.87 808.916C1070.35 809.448 1070.83 809.98 1071.31 810.512L1071.31 810.516L1071.31 810.517C1072.71 812.065 1074.11 813.618 1075.47 815.19C1076.64 816.551 1077.82 817.914 1078.99 819.277L1078.99 819.28L1078.99 819.281L1078.99 819.283C1082.7 823.593 1086.41 827.91 1090.15 832.185C1090.84 832.964 1091.55 833.72 1092.26 834.475L1092.26 834.476L1092.26 834.476C1093.55 835.839 1094.83 837.197 1095.96 838.674C1097.63 840.81 1099.24 842.999 1100.84 845.189C1103.17 848.366 1105.49 851.543 1108.02 854.557C1113.73 861.369 1119.54 868.181 1125.82 874.455C1134.43 883.06 1143.15 891.665 1152.56 899.337C1161.24 906.406 1170.28 913.034 1179.33 919.667C1183.18 922.487 1187.02 925.307 1190.85 928.163C1234.5 961.202 1289.71 982.003 1342.43 996.356C1398.27 1011.68 1450.46 1013.62 1507.7 1009.87C1566.33 1005.92 1624.01 994.964 1678.01 971.545C1687.45 967.494 1696.78 963.156 1706.07 958.818C1711.89 956.129 1717.63 953.296 1723.3 950.32C1727.5 948.133 1731.59 945.767 1735.64 943.293C1742.82 938.919 1750 934.509 1757.1 929.956C1761.02 927.41 1764.82 924.685 1768.55 921.853C1771.56 919.591 1774.51 917.253 1777.47 914.914C1779.53 913.288 1781.58 911.661 1783.66 910.057C1786.56 907.799 1789.48 905.573 1792.39 903.348L1792.4 903.339C1798.19 898.926 1803.97 894.518 1809.57 889.872C1815.81 884.674 1821.7 879.009 1827.44 873.236C1837.42 863.197 1847.32 853.051 1856.94 842.654C1863.54 835.519 1869.72 827.99 1875.85 820.461C1879.48 816.022 1882.97 811.465 1886.46 806.917ZM1161.95 878.041C1161.99 878.131 1162.03 878.227 1162.06 878.324C1162.18 878.642 1162.3 878.971 1162.53 879.152C1164.69 880.801 1166.91 882.415 1169.14 884.028C1171.36 885.642 1189.92 898.216 1189.92 898.216C1189.92 898.216 1165.83 880.622 1164 879.152C1163.6 878.824 1163.13 878.603 1162.65 878.379L1162.65 878.379C1162.41 878.271 1162.18 878.163 1161.95 878.041ZM1507.96 20.6445C1507.81 20.804 1507.66 20.9697 1507.51 21.1354C1507.34 21.3236 1507.17 21.5118 1507.01 21.6911C1507.16 21.7347 1507.31 21.785 1507.46 21.8348L1507.46 21.835C1507.8 21.9489 1508.13 22.0605 1508.48 22.0855C1509.74 22.1691 1511 22.2249 1512.26 22.2807C1514.78 22.3922 1517.3 22.5038 1519.78 22.8384C1524.67 23.4865 1529.58 23.9339 1534.49 24.3814C1546.7 25.4932 1558.92 26.6051 1570.64 30.7978C1571.57 31.1339 1572.61 31.1211 1573.65 31.1081C1574.5 31.0976 1575.36 31.087 1576.16 31.2638C1581.68 32.4162 1587.18 33.6176 1592.68 34.8178L1592.69 34.8195C1596.6 35.6725 1600.5 36.525 1604.41 37.3589C1605.46 37.5836 1606.52 37.7269 1607.59 37.87C1609.08 38.0693 1610.56 38.268 1611.98 38.6854C1614.08 39.3095 1616.11 40.1768 1618.14 41.0454C1619.02 41.4233 1619.91 41.8013 1620.8 42.1597C1620.95 41.7418 1629.25 42.1315 1634.03 42.3557C1636.08 42.4522 1637.49 42.518 1637.31 42.4757C1628.66 40.1624 1611.56 36.6713 1597.58 33.8164C1591.19 32.5122 1585.46 31.3408 1581.47 30.4751C1568.09 27.5351 1554.6 24.9537 1541.03 23.0893C1533.39 22.0384 1525.68 21.6336 1517.98 21.229C1514.64 21.0539 1511.31 20.8788 1507.98 20.6513L1507.96 20.6445ZM1621.22 42.2898L1622.15 42.5694L1622.15 42.5696C1624.06 43.1501 1625.96 43.7261 1627.88 44.2785C1628.12 44.3581 1628.37 44.3788 1628.62 44.3987C1628.71 44.4057 1628.8 44.4126 1628.88 44.4219C1628.82 44.36 1628.76 44.2892 1628.7 44.2189C1628.56 44.0449 1628.41 43.8738 1628.23 43.8483C1625.9 43.3069 1623.56 42.7974 1621.22 42.2898ZM1485.68 9.71737C1483.33 9.64431 1480.99 9.56372 1478.64 9.48312L1478.64 9.48311C1475.51 9.37556 1472.38 9.268 1469.26 9.17838C1468.97 9.17838 1468.68 9.24212 1468.4 9.30586C1468.25 9.33772 1468.11 9.36959 1467.96 9.39349C1468.12 9.43159 1468.27 9.48766 1468.43 9.54421C1468.72 9.64734 1469.01 9.75202 1469.29 9.75202C1472.8 9.76468 1476.31 9.75053 1479.81 9.73639L1479.81 9.73638L1479.81 9.73638L1479.81 9.73638L1479.81 9.73637C1481.77 9.72848 1483.72 9.72059 1485.68 9.71737ZM1465.05 39.8146C1464.27 39.7494 1463.48 39.6893 1462.69 39.6893C1462.53 39.6893 1462.38 39.8093 1462.23 39.9328C1462.14 40.0003 1462.06 40.0689 1461.97 40.1195L1461.97 40.1193L1461.98 40.119C1462.99 40.0175 1464.01 39.916 1465.05 39.8146ZM1465.54 39.7831C1466.23 39.7524 1466.92 39.7252 1467.61 39.7252C1467.57 39.6535 1467.53 39.51 1467.53 39.51C1466.87 39.5732 1466.21 39.6642 1465.54 39.7831ZM1948.49 473.368V472.314C1948.46 472.652 1948.46 473.001 1948.49 473.368ZM1948.49 473.368C1948.51 473.777 1948.57 474.191 1948.65 474.607C1948.59 474.193 1948.54 473.779 1948.49 473.368ZM1948.49 468.106V468.061C1948.46 468.061 1948.46 468.078 1948.49 468.106ZM1949.62 479.393L1949.62 479.402C1949.65 479.402 1949.64 479.398 1949.62 479.393ZM1101.35 182.205C1101.13 182.456 1093.88 190.044 1093.88 190.044C1094.17 189.506 1100.95 180.95 1100.95 180.95C1100.95 180.95 1111.32 169.908 1116.53 164.386C1116.83 164.062 1117.14 163.765 1117.46 163.469L1117.46 163.469L1117.46 163.469L1117.46 163.468C1117.66 163.274 1117.87 163.08 1118.07 162.88C1119.04 161.876 1119.97 160.873 1120.9 159.869C1120.69 160.245 1120.49 160.638 1120.29 161.031C1119.82 161.949 1119.36 162.87 1118.68 163.597C1114.85 167.756 1110.99 171.882 1107.13 176.009L1107.13 176.01C1105.2 178.074 1103.27 180.138 1101.35 182.205ZM1219.14 97.4501C1219.37 97.4655 1219.65 97.4844 1219.99 97.4844C1219.51 97.875 1219.16 98.1851 1218.88 98.4415L1218.88 98.4416C1218.56 98.7264 1218.31 98.9449 1218.05 99.1336C1215 101.141 1211.91 103.113 1208.83 105.085C1208.47 105.3 1208.07 105.444 1207.68 105.587C1207.74 105.471 1207.78 105.344 1207.83 105.217C1207.93 104.953 1208.02 104.693 1208.22 104.547C1211.55 102.181 1214.93 99.8507 1218.34 97.5202C1218.5 97.406 1218.74 97.4228 1219.14 97.4501ZM1182.95 100.873C1181.67 101.751 1180.39 102.629 1179.11 103.508C1178.75 103.364 1178.54 103.293 1178.36 103.293C1178.4 103.188 1178.44 103.072 1178.48 102.956C1178.55 102.717 1178.62 102.481 1178.79 102.36C1181.19 100.711 1183.6 99.1336 1186.04 97.5919C1186.18 97.4485 1186.58 97.5202 1186.76 97.6278C1186.86 97.6637 1186.9 98.1656 1186.79 98.2373C1185.52 99.1157 1184.23 99.9941 1182.95 100.873ZM1945.12 441.949C1944.97 442.122 1944.87 442.287 1944.97 442.426C1945.03 442.26 1945.08 442.1 1945.12 441.949ZM1132.01 149.228C1132.17 149.301 1132.38 149.395 1132.64 149.507C1131.32 150.688 1130.11 151.78 1128.93 152.839L1128.93 152.843L1128.92 152.85C1128 153.683 1127.09 154.496 1126.18 155.315C1126.14 155.315 1125.89 155.136 1125.75 155.029C1126.72 154.043 1127.69 153.048 1128.65 152.053C1129.62 151.058 1130.59 150.063 1131.56 149.077C1131.59 149.03 1131.72 149.09 1132.01 149.228ZM1121.94 866.819H1122.63C1123.54 867.682 1130.41 873.732 1137.72 880.17L1137.79 880.231L1137.8 880.24L1137.83 880.263L1137.84 880.271C1146.28 887.703 1155.27 895.619 1156.34 896.654C1182.43 920.008 1154.78 895.873 1154.78 895.873L1127.87 872.914C1125.93 871.121 1123.99 869.328 1122.05 867.5C1121.98 867.405 1121.97 867.23 1121.96 867.061C1121.96 866.975 1121.96 866.891 1121.94 866.819ZM1139.14 136.714C1139.25 136.801 1139.4 136.916 1139.56 137.03C1138.51 137.952 1137.51 138.847 1136.53 139.723L1136.53 139.725L1136.53 139.726C1135.91 140.28 1135.3 140.827 1134.68 141.368L1134.36 140.938C1135.87 139.468 1137.38 137.998 1138.92 136.564C1138.92 136.545 1139 136.61 1139.14 136.714ZM1445.82 41.2669L1445.82 41.2669L1445.82 41.267L1445.82 41.2671L1445.82 41.2671C1444.49 41.3746 1443.17 41.4821 1441.91 41.5895C1440.62 41.482 1439.4 41.3744 1438.18 41.231C1438.65 41.1549 1439.11 41.0656 1439.58 40.9761C1440.66 40.7705 1441.74 40.5639 1442.84 40.5139C1443.48 40.5139 1444.14 40.7334 1444.8 40.9547C1445.14 41.068 1445.48 41.1818 1445.82 41.2668L1445.82 41.2669ZM1131.9 861.449C1131.99 861.328 1132.1 861.193 1132.21 861.046C1132.8 861.76 1133.36 862.417 1133.89 863.044L1133.89 863.051L1133.89 863.051C1134.48 863.745 1135.04 864.404 1135.58 865.062L1157.9 886.504C1156.65 885.392 1132.71 863.198 1131.49 862.05C1131.46 862.023 1131.64 861.798 1131.9 861.449ZM1194.22 114.684C1193.72 115.061 1193.2 115.446 1192.68 115.841C1192.46 115.518 1192.32 115.303 1192.35 115.303L1192.36 115.302C1193.93 114.155 1195.51 113.008 1197.13 111.897C1197.15 111.897 1197.22 111.965 1197.31 112.044L1197.31 112.044C1197.38 112.105 1197.46 112.173 1197.52 112.22C1196.43 113.015 1195.35 113.828 1194.22 114.681L1194.22 114.683L1194.22 114.684ZM1945.65 444.9C1945.63 444.907 1945.64 444.939 1945.68 444.989C1945.67 444.959 1945.66 444.929 1945.65 444.9ZM1145.55 131.968C1145.57 131.982 1145.6 131.997 1145.63 132.011L1145.49 132.127L1145.33 132.265L1145.33 132.269L1145.33 132.269L1145.33 132.269C1144.72 132.794 1144.22 133.222 1143.69 133.624C1143.64 133.65 1143.47 133.504 1143.31 133.367C1143.29 133.344 1143.26 133.32 1143.24 133.298C1143.21 133.273 1143.18 133.25 1143.15 133.23C1143.35 133.057 1143.55 132.88 1143.75 132.702L1143.75 132.7L1143.75 132.7L1143.75 132.7L1143.75 132.7L1143.75 132.699C1144.13 132.36 1144.51 132.017 1144.91 131.688C1144.96 131.662 1145.13 131.75 1145.36 131.869L1145.44 131.914C1145.47 131.932 1145.51 131.95 1145.55 131.968ZM1983.91 516.975C1983.9 516.991 1983.89 517.001 1983.91 517.001V516.975ZM1966.2 371.495L1966.22 371.545C1966.19 371.551 1966.16 371.558 1966.13 371.566C1966.13 371.562 1966.14 371.558 1966.14 371.554C1966.16 371.536 1966.18 371.516 1966.2 371.495ZM1965.47 369.421L1965.46 369.394C1965.42 369.421 1965.43 369.427 1965.47 369.421ZM1174 106.882C1173.62 107.246 1173.23 107.629 1172.8 108.061C1172.78 107.971 1172.77 107.888 1172.75 107.813L1172.75 107.813C1172.71 107.65 1172.69 107.525 1172.76 107.452C1173.33 106.842 1173.94 106.233 1174.55 105.623C1174.55 105.587 1174.84 105.802 1174.98 105.91L1174.98 105.91C1174.66 106.234 1174.34 106.55 1174 106.882ZM1661.13 55.4424C1661.37 55.57 1661.65 55.7226 1662 55.8949C1661.58 55.9407 1661.25 56.0061 1661 56.0577C1660.65 56.1272 1660.43 56.1717 1660.25 56.11C1659.92 55.9857 1659.63 55.7409 1659.34 55.4948C1659.21 55.3859 1659.09 55.2768 1658.95 55.1778C1659.02 55.1664 1659.09 55.1533 1659.16 55.1395C1659.2 55.1299 1659.25 55.12 1659.29 55.1101L1659.29 55.11L1659.3 55.1098C1659.6 55.0444 1659.89 54.982 1660.17 55.0344C1660.47 55.0796 1660.73 55.2246 1661.13 55.4424ZM1448.53 9.80261C1448.7 9.91475 1448.9 10.0528 1449.16 10.2181C1448.79 10.2181 1448.49 10.2259 1448.24 10.2325C1447.72 10.2459 1447.39 10.2544 1447.08 10.1823C1446.91 10.133 1446.75 9.94842 1446.59 9.75632C1446.51 9.66876 1446.44 9.57963 1446.36 9.50105C1446.49 9.49124 1446.62 9.47607 1446.75 9.46066C1447.1 9.41976 1447.47 9.37726 1447.83 9.42935C1448.02 9.45339 1448.2 9.57421 1448.53 9.80261ZM1217.61 81.041C1217.71 81.0923 1217.82 81.1523 1217.94 81.2071C1217.83 81.2992 1217.73 81.3871 1217.64 81.4711L1217.64 81.4714C1217.25 81.8123 1216.93 82.0885 1216.61 82.3186C1216.59 82.3186 1216.44 82.1592 1216.29 81.9999C1216.21 81.9202 1216.14 81.8405 1216.08 81.7808C1216.18 81.7043 1216.29 81.6254 1216.39 81.5459C1216.68 81.3271 1216.98 81.1044 1217.3 80.9203C1217.34 80.8981 1217.45 80.9581 1217.61 81.041ZM1971.46 394.207C1971.47 394.239 1971.47 394.269 1971.48 394.296C1971.53 394.495 1971.55 394.743 1971.54 394.978C1971.56 394.811 1971.56 394.648 1971.53 394.491C1971.51 394.398 1971.49 394.306 1971.46 394.207ZM1519.65 976.79C1519.77 976.849 1519.92 976.922 1520.11 976.995C1520 977.032 1519.9 977.068 1519.81 977.1L1519.8 977.106C1519.38 977.258 1519.12 977.354 1518.85 977.354C1518.75 977.354 1518.63 977.246 1518.52 977.144C1518.47 977.103 1518.43 977.062 1518.39 977.031C1518.49 976.992 1518.6 976.943 1518.7 976.893C1518.89 976.807 1519.08 976.718 1519.28 976.672C1519.37 976.651 1519.48 976.705 1519.65 976.79ZM1059.39 790.814L1059.47 790.905C1059.55 791.001 1059.63 791.101 1059.72 791.205L1059.68 791.232L1059.63 791.272C1059.51 791.364 1059.39 791.456 1059.36 791.456C1059.07 791.133 1058.78 790.81 1058.53 790.452C1058.53 790.416 1058.71 790.237 1058.82 790.129C1058.88 790.205 1058.94 790.279 1059 790.353C1059.06 790.421 1059.12 790.49 1059.17 790.558L1059.29 790.697L1059.3 790.703L1059.3 790.706L1059.32 790.735L1059.39 790.814ZM1581.19 19.2352C1581.18 19.2889 1581.17 19.3427 1581.15 19.3965C1581.01 19.385 1580.88 19.3772 1580.75 19.3696C1580.47 19.3533 1580.2 19.3377 1579.93 19.2889C1579.78 19.2401 1579.65 19.1414 1579.52 19.038C1579.49 19.0161 1579.46 18.994 1579.43 18.9721C1579.41 18.9587 1579.39 18.9453 1579.38 18.9321C1579.36 18.9194 1579.34 18.9068 1579.32 18.8945C1579.47 18.8945 1579.6 18.8829 1579.74 18.8713C1579.95 18.8542 1580.15 18.8373 1580.36 18.8587C1580.55 18.8826 1580.74 18.9384 1580.94 18.9941C1581.03 19.022 1581.13 19.0499 1581.22 19.0738C1581.21 19.1276 1581.2 19.1814 1581.19 19.2352ZM1421.2 24.7021C1421.39 24.6122 1421.57 24.527 1421.74 24.4518C1421.99 24.5235 1422.14 24.5593 1422.28 24.5952C1422.16 24.6549 1422.04 24.7187 1421.92 24.7824C1421.68 24.9099 1421.44 25.0374 1421.2 25.133C1421.1 25.1836 1420.97 25.109 1420.83 25.0356C1420.77 25.0051 1420.72 24.9748 1420.67 24.9537C1420.85 24.8687 1421.03 24.7837 1421.2 24.7025L1421.2 24.7021ZM1626.26 30.4718L1626.26 30.472C1626.46 30.5143 1626.69 30.5638 1626.98 30.6185C1626.83 30.7119 1626.71 30.7962 1626.61 30.8681C1626.35 31.0447 1626.21 31.1459 1626.08 31.1204C1625.86 31.0705 1625.65 30.9512 1625.45 30.8348L1625.45 30.8345C1625.36 30.7838 1625.27 30.7337 1625.18 30.6902C1625.2 30.6693 1625.22 30.6468 1625.23 30.6237C1625.24 30.6111 1625.25 30.5983 1625.26 30.5854L1625.28 30.5505L1625.28 30.5449C1625.36 30.4342 1625.42 30.3317 1625.47 30.3317C1625.72 30.3538 1625.95 30.4034 1626.26 30.4718ZM1595.31 22.7507C1595.44 22.7176 1595.56 22.6859 1595.69 22.6591C1596.01 22.7667 1596.26 22.8384 1596.47 22.8742C1596.4 22.89 1596.32 22.9075 1596.23 22.9251C1595.94 22.988 1595.64 23.0535 1595.36 23.0535C1595.21 23.0535 1595.06 23.0148 1594.91 22.976C1594.81 22.9502 1594.71 22.9244 1594.61 22.9101C1594.86 22.8653 1595.09 22.8066 1595.31 22.7513L1595.31 22.7508L1595.31 22.7507ZM1116.88 861.202L1116.95 861.258L1117.02 861.314C1117.1 861.377 1117.19 861.443 1117.28 861.512C1117.1 861.638 1118.76 863.515 1119.74 864.622L1119.74 864.623C1120.16 865.1 1120.46 865.433 1120.43 865.423C1120.17 865.243 1116.17 861.477 1115.95 861.226C1115.92 861.19 1116.27 860.795 1116.31 860.795C1116.5 860.889 1116.67 861.027 1116.88 861.202ZM1267.07 72.1004C1266.93 72.4231 1266.78 72.7458 1266.75 72.7817C1266.17 72.7099 1266.03 72.7099 1265.85 72.7099C1265.92 72.6398 1265.99 72.5696 1266.05 72.5009L1266.09 72.4548L1266.09 72.4537L1266.09 72.4534C1266.23 72.2945 1266.37 72.1462 1266.53 72.0287C1266.61 71.9764 1266.77 72.0195 1266.91 72.0605L1266.96 72.0739C1267 72.0842 1267.04 72.0936 1267.07 72.1004ZM1663 46.0214L1663 46.0237L1663 46.0324C1662.97 46.1353 1662.93 46.2616 1662.9 46.3938C1662.6 46.1918 1662.35 46.0239 1662.14 45.8774L1662.01 45.7893C1661.89 45.7107 1661.78 45.6381 1661.68 45.5692C1661.74 45.5558 1661.79 45.5272 1661.84 45.4986C1661.93 45.451 1662.02 45.4034 1662.11 45.4258C1662.43 45.4975 1662.76 45.6409 1663.04 45.7843C1663.07 45.7843 1663.04 45.8793 1663 46.0214ZM1090.29 194.574C1090.18 194.718 1090.08 194.861 1089.93 195.005C1089.92 194.988 1089.89 194.968 1089.87 194.946L1089.87 194.946C1089.79 194.873 1089.69 194.781 1089.72 194.754L1089.72 194.754C1089.83 194.61 1089.93 194.467 1090.08 194.359L1090.29 194.574ZM1552.21 13.8907L1552.21 13.8911L1552.21 13.8947L1552.22 13.8954C1552.27 13.9226 1552.34 13.9518 1552.41 13.9827C1552.33 14.0143 1552.27 14.0459 1552.21 14.0739L1552.21 14.0743C1552.07 14.1413 1551.98 14.1872 1551.9 14.1619C1551.76 14.1141 1551.62 14.0345 1551.47 13.9548C1551.4 13.915 1551.33 13.8751 1551.26 13.8393C1551.29 13.8275 1551.34 13.8041 1551.38 13.7793C1551.48 13.7286 1551.58 13.6718 1551.65 13.6959C1551.85 13.7235 1552 13.794 1552.21 13.8907ZM1513.2 10.5281C1513.25 10.5549 1513.3 10.5837 1513.36 10.6125C1513.28 10.6305 1513.2 10.6508 1513.12 10.6705L1513.12 10.6706C1512.9 10.7292 1512.69 10.7827 1512.5 10.7559C1512.4 10.732 1512.31 10.6444 1512.21 10.5568C1512.17 10.5129 1512.12 10.4691 1512.07 10.4332C1512.22 10.4332 1512.36 10.4237 1512.49 10.4144C1512.62 10.4058 1512.74 10.3974 1512.86 10.3974C1512.96 10.3974 1513.07 10.455 1513.2 10.5281ZM1417.57 5.71955C1417.67 5.71585 1417.8 5.71159 1417.94 5.70063C1417.79 5.82138 1417.68 5.92205 1417.58 6.00639C1417.43 6.14744 1417.32 6.24283 1417.18 6.31013C1417.11 6.35857 1416.99 6.34157 1416.87 6.32544C1416.82 6.31769 1416.76 6.31013 1416.72 6.31013C1416.75 6.25489 1416.78 6.19283 1416.81 6.1313C1416.88 5.9932 1416.94 5.8578 1417.04 5.80819C1417.17 5.7335 1417.32 5.72796 1417.57 5.71955ZM1126.14 151.371C1126.23 151.251 1126.33 151.111 1126.47 150.941C1126.49 150.992 1126.53 151.043 1126.56 151.09C1126.62 151.177 1126.67 151.253 1126.65 151.3C1126.57 151.443 1126.47 151.587 1126.32 151.658C1126.25 151.682 1126.17 151.674 1126.07 151.667L1126.07 151.667L1126.06 151.666C1126.05 151.664 1126.03 151.663 1126.02 151.662C1125.99 151.66 1125.96 151.658 1125.93 151.658C1126 151.573 1126.06 151.48 1126.14 151.371ZM1430.4 995.162L1430.89 995.201C1430.72 995.198 1430.56 995.185 1430.4 995.162ZM1529.12 992.449C1528.71 992.506 1528.31 992.563 1527.9 992.62C1529.58 992.076 1531.05 991.474 1532.27 990.809C1534.21 989.75 1535.84 988.896 1537.19 988.219C1533.36 989.486 1527.77 990.802 1521.7 990.725C1515.02 990.642 1510.46 992.126 1505.63 993.7L1505.63 993.7L1505.63 993.701C1503.52 994.387 1501.36 995.09 1498.95 995.687C1491.46 996.233 1484.04 996.582 1476.71 996.748C1474.88 996.551 1472.93 996.292 1470.86 995.964C1447.96 992.336 1438.61 993.991 1433.89 994.825C1432.61 995.052 1431.67 995.218 1430.89 995.201C1438.76 995.828 1449.13 996.451 1460.3 996.815C1450.56 996.676 1440.99 996.22 1431.59 995.483C1337.4 987.428 1259.59 947.791 1186.01 901.805C1223.75 933.086 1314.22 986.274 1431.59 995.483C1442.79 996.44 1454.22 996.951 1465.91 996.974C1471.02 997.095 1476.23 997.157 1481.39 997.134C1485.28 997.353 1488.6 997.264 1491.52 996.975C1506.23 996.558 1519.64 995.298 1527.9 992.621C1528.3 992.565 1528.71 992.507 1529.12 992.449ZM1539.71 990.814C1536.15 991.403 1532.62 991.948 1529.12 992.449C1532.63 991.95 1536.16 991.405 1539.71 990.814ZM1491.52 996.975C1488.19 997.069 1484.8 997.12 1481.39 997.134C1480.17 997.066 1478.89 996.967 1477.55 996.834C1484.47 996.656 1491.49 996.306 1498.59 995.776C1496.47 996.286 1494.16 996.713 1491.52 996.975ZM1584.76 990.724C1494.3 1013.25 1429.47 1006.77 1357 989.974C1360.2 990.209 1365.14 991.174 1371.79 992.474L1371.79 992.475C1403.83 998.735 1475.7 1012.78 1584.76 990.724ZM1363.25 973.439C1425.44 991.011 1472.56 997.062 1558.17 976.672C1465.08 997.519 1403.42 982.704 1375.93 976.099L1375.93 976.099C1370.22 974.727 1365.99 973.709 1363.25 973.439ZM1363.81 994.118C1272.82 973.843 1217.71 939.066 1160.4 891.656C1163.21 893.332 1167.26 896.59 1172.73 900.997C1198.33 921.624 1255.17 967.432 1363.81 994.118Z" fill="#ED1B6C"/>
<path d="M92.1607 544.134L22.6593 399.799H0V613.921H22.6593V446.356L83.4968 571.077H100.825L161.376 446.356V613.921H184.036V399.799H161.376L92.1607 544.134Z" fill="white"/>
<path d="M288.859 399.799L210.979 613.921H234.876L250.395 569.459L259.44 543.182H259.345L298.189 431.503L323.229 503.099L337.224 543.182H337.129L345.698 567.84L361.788 613.921H385.685L307.805 399.799H288.859Z" fill="white"/>
<path d="M546.109 571.744L435.288 399.799H412.629V613.921H435.288V441.405L546.109 613.921H568.769V399.799H546.109V571.744Z" fill="white"/>
<path d="M595.998 420.269H657.121V613.921H679.495V420.269H740.618V399.799H595.998V420.269Z" fill="white"/>
<path d="M899.804 497.863C907.897 487.961 911.896 475.299 911.896 459.97C911.896 440.738 906.183 425.886 894.663 415.413C883.238 405.036 867.434 399.799 847.345 399.799H767.942V613.921H790.602V519.951H842.109L890.474 613.921H916.561L866.006 517.761C880.477 514.429 891.712 507.764 899.804 497.863ZM790.602 500.338V420.269H845.536C859.627 420.269 870.385 423.601 878.002 430.361C885.428 437.121 889.236 447.117 889.236 460.351C889.236 473.204 885.428 483.01 877.716 489.961C870.1 496.911 859.341 500.338 845.441 500.338H790.602Z" fill="white"/>
<path d="M1273.4 399.799H1200.18V613.921H1273.4C1296.15 613.921 1314.24 607.351 1327.57 594.213C1340.9 581.074 1347.56 560.319 1347.56 532.042V481.773C1347.56 453.401 1340.9 432.741 1327.57 419.602C1314.15 406.369 1296.15 399.799 1273.4 399.799ZM1324.52 533.28C1324.52 573.362 1307.58 593.451 1273.68 593.451H1223.13V420.269H1273.68C1290.06 420.269 1302.63 425.22 1311.39 435.121C1320.14 445.023 1324.62 460.827 1324.62 482.63V533.28H1324.52Z" fill="white"/>
<path d="M1692.98 416.746C1679.65 403.608 1661.65 397.039 1639.18 397.039C1616.43 397.039 1598.34 403.608 1584.92 416.746C1571.49 429.885 1564.73 450.64 1564.73 478.917V534.423C1564.73 562.795 1571.4 583.454 1584.73 596.593C1598.05 609.732 1616.14 616.301 1638.9 616.301C1661.46 616.301 1679.46 609.732 1692.88 596.593C1706.31 583.454 1713.07 562.699 1713.07 534.423V478.917C1713.07 450.64 1706.4 429.885 1692.98 416.746ZM1690.41 535.756C1690.41 575.647 1673.36 595.641 1639.18 595.641C1622.24 595.641 1609.38 590.881 1600.53 581.36C1591.68 571.839 1587.3 556.606 1587.3 535.756V479.869C1587.3 457.971 1591.68 442.072 1600.34 432.265C1609 422.459 1621.95 417.508 1639.09 417.508C1673.17 417.508 1690.31 438.263 1690.31 479.869V535.756H1690.41Z" fill="white"/>
<path d="M1544.83 613.921L1466.95 399.799H1448.01L1370.13 613.921H1394.02L1406.88 577.171L1418.59 543.182L1427.54 517.285L1457.34 431.503L1496.47 543.182H1496.37L1507.61 575.552L1520.94 613.921H1544.83Z" fill="white"/>
<path d="M1105.83 613.921L1027.95 399.799H1009.01L931.128 613.921H955.025L970.163 570.506L979.588 543.182H979.493L1018.34 431.503L1053.85 532.994L1057.37 543.182L1066.8 570.506L1081.94 613.921H1105.83Z" fill="white"/>
</svg>
